<svg width="125" height="33" viewBox="0 0 125 33" fill="none" xmlns="http://www.w3.org/2000/svg">
<path d="M6.954 11.647C7.638 11.647 8.284 11.5013 8.892 11.21C9.5127 10.906 10.051 10.4753 10.507 9.918L12.008 11.362C11.3873 12.084 10.621 12.654 9.709 13.072C8.8097 13.49 7.866 13.699 6.878 13.699C5.9153 13.699 5.0097 13.5217 4.161 13.167C3.325 12.8123 2.5967 12.331 1.976 11.723C1.368 11.1023 0.886701 10.374 0.532001 9.538C0.177301 8.702 0 7.809 0 6.859C0 5.8963 0.177301 4.997 0.532001 4.161C0.886701 3.325 1.368 2.603 1.976 1.995C2.5967 1.37433 3.325 0.88667 4.161 0.532C5.0097 0.17733 5.9153 0 6.878 0C7.8913 0 8.854 0.209 9.766 0.627C10.6907 1.045 11.457 1.62133 12.065 2.356L10.526 3.876C10.0573 3.29333 9.5063 2.84367 8.873 2.527C8.2397 2.19767 7.5747 2.033 6.878 2.033C6.232 2.033 5.6303 2.15967 5.073 2.413C4.5157 2.65367 4.0343 2.98933 3.629 3.42C3.2363 3.8507 2.9197 4.3637 2.679 4.959C2.451 5.5417 2.337 6.175 2.337 6.859C2.337 7.5303 2.451 8.1637 2.679 8.759C2.9197 9.3417 3.2427 9.8483 3.648 10.279C4.066 10.697 4.56 11.0327 5.13 11.286C5.7 11.5267 6.308 11.647 6.954 11.647ZM17.9675 13.509V0.209H23.8765C25.1811 0.209 26.2451 0.58267 27.0685 1.33C27.9045 2.07733 28.3225 3.04633 28.3225 4.237C28.3225 5.0983 28.0818 5.852 27.6005 6.498C27.1318 7.144 26.4985 7.6063 25.7005 7.885L28.4935 13.509H25.9665L23.4015 8.189H20.2475V13.509H17.9675ZM23.6865 2.128H20.2475V6.365H23.6865C24.3831 6.365 24.9468 6.175 25.3775 5.795C25.8081 5.4023 26.0235 4.8893 26.0235 4.256C26.0235 3.6227 25.8081 3.10967 25.3775 2.717C24.9468 2.32433 24.3831 2.128 23.6865 2.128ZM34.3431 13.509V0.209H43.8625V2.147H36.6231V5.852H41.6775V7.752H36.6231V11.571H43.9385V13.509H34.3431ZM54.4025 13.509H52.0275L49.1205 0.209H51.4385L53.4145 9.956L56.2645 0.209H58.4305L61.2805 9.956L63.2565 0.209H65.4985L62.5915 13.509H60.2165L57.3095 3.42L54.4025 13.509ZM79.2765 13.509V0.209H84.1405C85.0905 0.209 85.9775 0.38 86.8005 0.722C87.6235 1.064 88.3265 1.53267 88.9095 2.128C89.5045 2.72333 89.9675 3.43267 90.2965 4.256C90.6385 5.0667 90.8095 5.9407 90.8095 6.878C90.8095 7.8153 90.6385 8.6893 90.2965 9.5C89.9675 10.3107 89.5045 11.0137 88.9095 11.609C88.3265 12.1917 87.6235 12.654 86.8005 12.996C85.9775 13.338 85.0905 13.509 84.1405 13.509H79.2765ZM84.1975 2.185H81.5565V11.533H84.1975C84.7925 11.533 85.3505 11.4127 85.8695 11.172C86.3885 10.9313 86.8385 10.6083 87.2185 10.203C87.5985 9.785 87.8965 9.291 88.1115 8.721C88.3395 8.151 88.4535 7.5367 88.4535 6.878C88.4535 6.2193 88.3395 5.605 88.1115 5.035C87.8965 4.4523 87.5985 3.952 87.2185 3.534C86.8385 3.116 86.3885 2.78667 85.8695 2.546C85.3505 2.30533 84.7925 2.185 84.1975 2.185ZM96.9885 13.509V0.209H106.508V2.147H99.2685V5.852H104.323V7.752H99.2685V11.571H106.584V13.509H96.9885ZM116.586 13.509L111.418 0.209H113.868L117.954 11.21L122.077 0.209H124.433L119.227 13.509H116.586Z" fill="#FFBE09"/>
<path d="M6.64453 24.6045H2.46777V29H1.15527V19.0469H7.32129V20.127H2.46777V23.5312H6.64453V24.6045ZM12.2328 22.7383C12.0414 22.7064 11.834 22.6904 11.6107 22.6904C10.7813 22.6904 10.2185 23.0436 9.92223 23.75V29H8.65758V21.6035H9.88805L9.90855 22.458C10.3233 21.7972 10.9112 21.4668 11.6722 21.4668C11.9183 21.4668 12.1052 21.4987 12.2328 21.5625V22.7383ZM13.07 25.2334C13.07 24.5088 13.2113 23.8571 13.4939 23.2783C13.781 22.6995 14.1775 22.2529 14.6833 21.9385C15.1937 21.624 15.7748 21.4668 16.4265 21.4668C17.4336 21.4668 18.2471 21.8154 18.8669 22.5127C19.4913 23.21 19.8034 24.1374 19.8034 25.2949V25.3838C19.8034 26.1038 19.6644 26.751 19.3864 27.3252C19.113 27.8949 18.7188 28.3392 18.2038 28.6582C17.6934 28.9772 17.1055 29.1367 16.4402 29.1367C15.4376 29.1367 14.6241 28.7881 13.9997 28.0908C13.3799 27.3936 13.07 26.4707 13.07 25.3223V25.2334ZM14.3415 25.3838C14.3415 26.2041 14.5307 26.8626 14.9089 27.3594C15.2917 27.8561 15.8021 28.1045 16.4402 28.1045C17.0827 28.1045 17.5932 27.8538 17.9714 27.3525C18.3497 26.8467 18.5388 26.1403 18.5388 25.2334C18.5388 24.4222 18.3451 23.766 17.9577 23.2646C17.5749 22.7588 17.0645 22.5059 16.4265 22.5059C15.8021 22.5059 15.2986 22.7542 14.9157 23.251C14.5329 23.7477 14.3415 24.4587 14.3415 25.3838ZM22.7257 21.6035L22.7667 22.5332C23.3318 21.8223 24.0701 21.4668 24.9815 21.4668C26.5447 21.4668 27.3331 22.3486 27.3468 24.1123V29H26.0821V24.1055C26.0776 23.5723 25.9545 23.1781 25.713 22.9229C25.476 22.6676 25.1046 22.54 24.5987 22.54C24.1886 22.54 23.8285 22.6494 23.5186 22.8682C23.2087 23.0869 22.9672 23.374 22.794 23.7295V29H21.5294V21.6035H22.7257ZM31.1098 19.8125V21.6035H32.4907V22.5811H31.1098V27.168C31.1098 27.4642 31.1713 27.6875 31.2944 27.8379C31.4174 27.9837 31.6271 28.0566 31.9233 28.0566C32.0691 28.0566 32.2696 28.0293 32.5248 27.9746V29C32.1922 29.0911 31.8686 29.1367 31.5541 29.1367C30.989 29.1367 30.5629 28.9658 30.2758 28.624C29.9887 28.2822 29.8452 27.7969 29.8452 27.168V22.5811H28.4985V21.6035H29.8452V19.8125H31.1098ZM37.1834 29.1367C36.1808 29.1367 35.365 28.8086 34.7361 28.1523C34.1072 27.4915 33.7928 26.6097 33.7928 25.5068V25.2744C33.7928 24.5407 33.9318 23.8867 34.2098 23.3125C34.4923 22.7337 34.8842 22.2826 35.3855 21.959C35.8914 21.6309 36.4383 21.4668 37.0262 21.4668C37.9878 21.4668 38.7352 21.7835 39.2684 22.417C39.8016 23.0505 40.0682 23.9574 40.0682 25.1377V25.6641H35.0574C35.0757 26.3932 35.2876 26.9834 35.6932 27.4346C36.1033 27.8812 36.6229 28.1045 37.2518 28.1045C37.6984 28.1045 38.0766 28.0133 38.3865 27.8311C38.6964 27.6488 38.9676 27.4072 39.2 27.1064L39.9725 27.708C39.3527 28.6605 38.423 29.1367 37.1834 29.1367ZM37.0262 22.5059C36.5158 22.5059 36.0874 22.6927 35.741 23.0664C35.3947 23.4355 35.1805 23.9551 35.0984 24.625H38.8035V24.5293C38.7671 23.8867 38.5939 23.39 38.284 23.0391C37.9741 22.6836 37.5548 22.5059 37.0262 22.5059ZM42.8742 21.6035L42.9152 22.5332C43.4803 21.8223 44.2186 21.4668 45.13 21.4668C46.6932 21.4668 47.4816 22.3486 47.4953 24.1123V29H46.2306V24.1055C46.2261 23.5723 46.103 23.1781 45.8615 22.9229C45.6245 22.6676 45.2531 22.54 44.7472 22.54C44.3371 22.54 43.977 22.6494 43.6671 22.8682C43.3573 23.0869 43.1157 23.374 42.9425 23.7295V29H41.6779V21.6035H42.8742ZM49.2349 25.2402C49.2349 24.1055 49.5038 23.194 50.0415 22.5059C50.5793 21.8132 51.2834 21.4668 52.1538 21.4668C53.0197 21.4668 53.7056 21.763 54.2114 22.3555V18.5H55.4761V29H54.314L54.2525 28.207C53.7466 28.8268 53.0425 29.1367 52.1402 29.1367C51.2834 29.1367 50.5838 28.7858 50.0415 28.084C49.5038 27.3822 49.2349 26.4661 49.2349 25.3359V25.2402ZM50.4995 25.3838C50.4995 26.2223 50.6727 26.8786 51.0191 27.3525C51.3654 27.8265 51.8439 28.0635 52.4546 28.0635C53.2567 28.0635 53.8423 27.7035 54.2114 26.9834V23.5859C53.8332 22.8887 53.2521 22.54 52.4683 22.54C51.8485 22.54 51.3654 22.7793 51.0191 23.2578C50.6727 23.7363 50.4995 24.445 50.4995 25.3838ZM61.3957 29V19.0469H64.2053C65.0712 19.0469 65.8368 19.2383 66.5022 19.6211C67.1676 20.0039 67.6802 20.5485 68.0403 21.2549C68.4049 21.9613 68.5894 22.7725 68.594 23.6885V24.3242C68.594 25.263 68.4117 26.0856 68.0471 26.792C67.6871 27.4984 67.1698 28.0407 66.4953 28.4189C65.8254 28.7972 65.0439 28.9909 64.1506 29H61.3957ZM62.7082 20.127V27.9268H64.0891C65.1008 27.9268 65.887 27.6123 66.4475 26.9834C67.0126 26.3545 67.2952 25.459 67.2952 24.2969V23.7158C67.2952 22.5856 67.0286 21.7083 66.4953 21.084C65.9667 20.4551 65.2148 20.1361 64.2395 20.127H62.7082ZM73.5943 29.1367C72.5917 29.1367 71.776 28.8086 71.1471 28.1523C70.5182 27.4915 70.2037 26.6097 70.2037 25.5068V25.2744C70.2037 24.5407 70.3427 23.8867 70.6207 23.3125C70.9033 22.7337 71.2952 22.2826 71.7965 21.959C72.3023 21.6309 72.8492 21.4668 73.4371 21.4668C74.3987 21.4668 75.1461 21.7835 75.6793 22.417C76.2125 23.0505 76.4791 23.9574 76.4791 25.1377V25.6641H71.4684C71.4866 26.3932 71.6985 26.9834 72.1041 27.4346C72.5143 27.8812 73.0338 28.1045 73.6627 28.1045C74.1093 28.1045 74.4876 28.0133 74.7975 27.8311C75.1074 27.6488 75.3785 27.4072 75.6109 27.1064L76.3834 27.708C75.7636 28.6605 74.8339 29.1367 73.5943 29.1367ZM73.4371 22.5059C72.9267 22.5059 72.4983 22.6927 72.152 23.0664C71.8056 23.4355 71.5914 23.9551 71.5094 24.625H75.2145V24.5293C75.178 23.8867 75.0048 23.39 74.6949 23.0391C74.385 22.6836 73.9658 22.5059 73.4371 22.5059ZM80.4336 27.2842L82.2656 21.6035H83.5576L80.9052 29H79.9414L77.2617 21.6035H78.5537L80.4336 27.2842ZM87.888 29.1367C86.8854 29.1367 86.0696 28.8086 85.4407 28.1523C84.8118 27.4915 84.4974 26.6097 84.4974 25.5068V25.2744C84.4974 24.5407 84.6364 23.8867 84.9144 23.3125C85.1969 22.7337 85.5889 22.2826 86.0902 21.959C86.596 21.6309 87.1429 21.4668 87.7308 21.4668C88.6924 21.4668 89.4398 21.7835 89.973 22.417C90.5062 23.0505 90.7728 23.9574 90.7728 25.1377V25.6641H85.762C85.7803 26.3932 85.9922 26.9834 86.3978 27.4346C86.8079 27.8812 87.3275 28.1045 87.9564 28.1045C88.403 28.1045 88.7812 28.0133 89.0911 27.8311C89.401 27.6488 89.6722 27.4072 89.9046 27.1064L90.6771 27.708C90.0573 28.6605 89.1276 29.1367 87.888 29.1367ZM87.7308 22.5059C87.2204 22.5059 86.792 22.6927 86.4456 23.0664C86.0993 23.4355 85.8851 23.9551 85.803 24.625H89.5081V24.5293C89.4717 23.8867 89.2985 23.39 88.9886 23.0391C88.6787 22.6836 88.2594 22.5059 87.7308 22.5059ZM93.7565 29H92.4919V18.5H93.7565V29ZM95.5918 25.2334C95.5918 24.5088 95.7331 23.8571 96.0157 23.2783C96.3028 22.6995 96.6993 22.2529 97.2051 21.9385C97.7155 21.624 98.2966 21.4668 98.9483 21.4668C99.9554 21.4668 100.769 21.8154 101.389 22.5127C102.013 23.21 102.325 24.1374 102.325 25.2949V25.3838C102.325 26.1038 102.186 26.751 101.908 27.3252C101.635 27.8949 101.241 28.3392 100.726 28.6582C100.215 28.9772 99.6273 29.1367 98.962 29.1367C97.9593 29.1367 97.1459 28.7881 96.5215 28.0908C95.9017 27.3936 95.5918 26.4707 95.5918 25.3223V25.2334ZM96.8633 25.3838C96.8633 26.2041 97.0524 26.8626 97.4307 27.3594C97.8135 27.8561 98.3239 28.1045 98.962 28.1045C99.6045 28.1045 100.115 27.8538 100.493 27.3525C100.871 26.8467 101.061 26.1403 101.061 25.2334C101.061 24.4222 100.867 23.766 100.48 23.2646C100.097 22.7588 99.5863 22.5059 98.9483 22.5059C98.3239 22.5059 97.8204 22.7542 97.4375 23.251C97.0547 23.7477 96.8633 24.4587 96.8633 25.3838ZM110.299 25.3838C110.299 26.5094 110.042 27.4163 109.527 28.1045C109.012 28.7926 108.315 29.1367 107.435 29.1367C106.537 29.1367 105.831 28.8519 105.316 28.2822V31.8438H104.051V21.6035H105.206L105.268 22.4238C105.783 21.7858 106.498 21.4668 107.414 21.4668C108.303 21.4668 109.005 21.8018 109.52 22.4717C110.039 23.1416 110.299 24.0736 110.299 25.2676V25.3838ZM109.035 25.2402C109.035 24.4062 108.857 23.7477 108.501 23.2646C108.146 22.7816 107.658 22.54 107.038 22.54C106.273 22.54 105.699 22.8796 105.316 23.5586V27.0928C105.694 27.7673 106.273 28.1045 107.052 28.1045C107.658 28.1045 108.139 27.8652 108.495 27.3867C108.855 26.9036 109.035 26.1882 109.035 25.2402ZM115.122 29.1367C114.119 29.1367 113.303 28.8086 112.675 28.1523C112.046 27.4915 111.731 26.6097 111.731 25.5068V25.2744C111.731 24.5407 111.87 23.8867 112.148 23.3125C112.431 22.7337 112.823 22.2826 113.324 21.959C113.83 21.6309 114.377 21.4668 114.965 21.4668C115.926 21.4668 116.674 21.7835 117.207 22.417C117.74 23.0505 118.007 23.9574 118.007 25.1377V25.6641H112.996C113.014 26.3932 113.226 26.9834 113.632 27.4346C114.042 27.8812 114.561 28.1045 115.19 28.1045C115.637 28.1045 116.015 28.0133 116.325 27.8311C116.635 27.6488 116.906 27.4072 117.138 27.1064L117.911 27.708C117.291 28.6605 116.361 29.1367 115.122 29.1367ZM114.965 22.5059C114.454 22.5059 114.026 22.6927 113.679 23.0664C113.333 23.4355 113.119 23.9551 113.037 24.625H116.742V24.5293C116.705 23.8867 116.532 23.39 116.222 23.0391C115.913 22.6836 115.493 22.5059 114.965 22.5059ZM123.192 22.7383C123 22.7064 122.793 22.6904 122.569 22.6904C121.74 22.6904 121.177 23.0436 120.881 23.75V29H119.616V21.6035H120.847L120.867 22.458C121.282 21.7972 121.87 21.4668 122.631 21.4668C122.877 21.4668 123.064 21.4987 123.192 21.5625V22.7383Z" fill="white"/>
</svg>
