<svg width="194" height="39" viewBox="0 0 194 39" fill="none" xmlns="http://www.w3.org/2000/svg">
<path d="M22.025 38.1441C17.932 38.1441 13.6894 38.1083 9.39677 38.0368L8.42346 38.0249C6.38947 37.9891 4.08096 37.9534 2.07193 37.8938C0.948869 37.8581 0.0254644 37.012 0.000507527 35.9395C-0.0244494 34.8313 0.873998 33.9257 2.03449 33.8899C2.03449 33.8899 2.03449 33.8899 2.04697 33.8899C2.47124 33.878 2.74576 33.461 2.58354 33.0915C1.49792 30.6725 0.936391 28.0271 0.936391 25.3221C0.936391 21.1157 2.28406 17.088 4.82966 13.668C7.02587 10.7247 9.97078 8.42482 13.3774 6.97103C13.4273 6.61354 13.5022 6.27989 13.6145 5.98198C14.0013 4.92143 14.6128 3.53914 15.8356 2.34751C17.4329 0.786475 19.5542 0 22.1497 0C24.7577 0 26.904 0.810308 28.5137 2.39518C30.0112 3.8728 30.5103 5.55299 30.66 6.19647C30.71 6.44672 30.7474 6.72079 30.7723 7.04253C34.1415 8.52015 37.0365 10.8081 39.1953 13.7276C41.7159 17.1356 43.0511 21.1395 43.0511 25.3221C43.0511 28.039 42.4896 30.6964 41.404 33.1511C41.2542 33.4967 41.5038 33.8899 41.9031 33.9019C41.9156 33.9019 41.9156 33.9019 41.9281 33.9019C43.0511 33.9376 43.9745 34.7837 43.9995 35.8561C44.0244 36.9643 43.126 37.87 41.9655 37.9057C39.8566 37.9653 37.5481 38.013 34.9277 38.0606C30.6476 38.1321 26.4922 38.1679 22.5615 38.1679L22.025 38.1441Z" fill="white"/>
<path d="M15.3121 8.53186L11.8431 10.2001L9.47222 11.9161L6.82679 14.7045L5.24203 17.1473L4.16888 19.5902L3.32035 23.1889L3.22052 26.4421L3.66974 29.3735L4.59315 32.6266L6.83927 35.9036H37.3366L39.0835 32.5074L40.3563 29.2186L40.8056 24.2971L40.007 20.1383L38.6094 16.8971L36.6128 14.0253L34.192 11.6539L32.1081 9.93798L28.6017 8.72252L15.3121 8.53186Z" fill="#008BCA"/>
<path d="M40.4187 27.5385C40.531 26.8354 40.4686 26.2277 40.2065 25.6795C39.8696 24.9884 39.2582 24.4879 38.4845 24.2496C36.9996 23.8087 32.4824 21.4492 29.6872 19.912C29.4626 19.7214 29.2505 19.5426 29.0508 19.3877L29.0882 18.9706C29.4501 18.2199 29.7371 17.4215 29.9492 16.5874C29.9992 16.5397 30.0491 16.4921 30.099 16.4444C30.648 15.8962 31.0474 15.0859 31.1472 14.3352C31.9458 12.9529 32.0207 11.3442 31.7961 10.1883L29.5 8.82988C29.5 8.82988 29.1132 8.73455 28.5392 8.59155C28.4518 8.56772 28.6764 8.85371 28.3395 10.0215C28.2896 10.1883 28.2896 11.9162 28.2397 12.1069C28.1648 12.369 28.2272 13.9896 28.1399 14.2756C28.09 14.4544 28.0026 15.6222 27.9527 15.8128C27.8653 16.1227 27.3787 17.207 27.2913 17.5288C27.204 17.8386 26.9919 18.7442 26.917 19.066C26.8546 19.3162 26.892 20.4483 26.8172 20.6985C26.7173 21.0917 27.9652 20.6747 27.8529 21.056C27.778 21.342 29.1007 22.188 29.3628 22.3191C31.6338 23.4988 32.707 23.9397 32.5822 23.761L34.5663 24.8454C36.1136 25.6319 37.1992 25.894 38.1601 26.2873C38.2599 26.6447 38.3472 27.2763 38.3472 28.1819L38.8214 30.0766L39.2956 31.7092L40.0194 30.3269L40.4935 27.9913L40.4187 27.5385Z" fill="#047FA6"/>
<path d="M7.89984 35.9513H8.88564C9.42221 35.9513 11.1817 35.8798 11.9678 35.8798C13.0659 35.8798 15.5117 35.9513 16.0732 35.9513H17.2587C17.7703 35.9513 19.7294 35.9037 20.4656 35.9037C20.9772 35.9037 22.2126 35.9513 22.4871 35.9513H23.6726C23.9845 35.9513 25.7565 35.9275 26.2182 35.9275C26.9295 35.9275 28.5392 35.9513 28.901 35.9513H31.1097C31.2719 35.9513 31.8834 35.9513 32.0456 35.9513H33.0813C33.3683 35.9513 34.3042 35.9513 34.5787 35.9513H35.6144C35.6893 35.9513 35.9888 35.9513 36.0637 35.9513H37.0245L37.7732 35.0814L39.2332 32.3526L38.2973 28.1104L38.185 26.3349L34.2543 24.5951L30.5482 22.6527L28.1274 21.4611L26.8421 20.7223L17.2462 20.9249L16.797 21.044L15.5366 21.7709L13.7273 22.9864L10.7324 24.0708L7.05131 25.7271L6.45235 26.3468V27.0975L6.29013 27.7767L4.89254 32.2573L4.75528 32.5433L6.83918 35.9275C7.27592 35.9394 7.77506 35.9513 7.89984 35.9513Z" fill="#293F6E"/>
<path d="M34.4166 30.863C34.4166 30.863 34.2544 34.5452 35.9015 35.8679C36.0887 36.0228 33.281 35.8679 33.281 35.8679L33.4183 34.14L34.4166 30.863Z" fill="#203456"/>
<path d="M15.8984 10.5819L15.549 8.93742L15.6114 6.50649L16.5598 4.77862L18.2194 3.12226L20.0662 2.35961L22.5619 2.01404L24.5585 2.39536L26.1682 3.16992L27.5283 4.5403L28.5017 6.01792L28.6264 7.86495L28.3519 10.0456L29.2005 9.68814L29.5499 10.1171L29.6996 11.3922L29.5249 12.5481L28.7512 13.8231V14.7526L28.0899 15.2769L27.6531 16.6711L26.8046 18.8399L25.7689 19.9362L25.2323 20.5677L23.9845 21.7713L21.7633 21.8904L19.7044 21.3185L18.444 19.9481L17.0465 18.2083L16.2478 15.4676L15.7113 15.122L15.3119 14.5857V13.7635L14.5882 12.1072L14.4759 10.5699L14.8877 9.77156L15.4243 9.83114L15.8984 10.5819Z" fill="#FFCDAF"/>
<path d="M29.4378 9.93842L28.5394 9.67626L28.6267 7.06659L28.0652 5.19574L26.4804 3.37254L24.7958 2.50265L22.3625 2.026L20.5781 2.12133L19.8044 2.45499C23.6478 2.84823 26.6052 5.99413 23.9348 10.9036C23.9348 10.9036 23.1362 11.3445 22.4748 11.3088C22.4748 11.3088 22.3126 11.845 22.7993 12.1191C22.7993 12.1191 23.6229 16.826 21.5265 16.9333L20.5656 16.7903L20.2661 16.5639C20.2661 16.5639 20.5532 17.3146 21.0149 17.3146C21.0149 17.3146 21.3393 17.7793 22.063 17.8032C22.2502 17.8032 21.6762 18.3871 21.9258 18.3156C21.9258 18.3156 23.1112 18.4705 22.1629 19.6025C21.7636 19.5906 21.3393 19.5072 20.8901 19.3404C20.8277 19.3165 20.7778 19.388 20.8277 19.4357C21.0024 19.6264 22.1504 19.5668 21.4142 20.1507C21.1896 20.2818 21.2894 20.4843 21.5015 20.4486C21.6013 20.4367 21.6887 20.4248 21.7885 20.4248C21.9632 20.4009 22.1754 20.5082 22.3501 20.5201L22.9615 21.8071L24.4464 21.4615L24.8832 20.961L26.3681 20.8299L26.8548 20.2341L26.6801 18.542L27.4537 17.1716L28.0527 15.1816L28.4146 15.0267L28.9137 13.7636L29.6375 11.9404L29.4378 9.93842Z" fill="#EBBBA1"/>
<path d="M21.4764 13.1554C21.4764 13.1554 21.3891 12.8217 21.414 12.5C21.414 12.5 21.0771 12.7026 20.9024 13.072C20.6154 12.8456 20.0788 12.5715 19.4424 12.5953C18.7062 12.6192 18.1821 12.9409 17.8826 13.0601C17.8078 13.0839 17.8078 13.1911 17.8826 13.215C18.3069 13.3699 19.2553 13.6797 20.2161 13.6082C20.2161 13.6082 20.4657 13.6201 20.7776 13.6082C20.9149 13.7393 21.127 14.0491 21.0147 14.5973C20.865 15.3003 20.1537 15.4552 20.0913 16.1106L20.0664 16.1464C20.0289 16.1941 19.979 16.2417 19.9166 16.2894C19.8043 16.3728 19.6795 16.4324 19.5423 16.5039C19.2802 16.635 18.9932 16.778 18.7561 16.9924C18.519 17.2069 18.3568 17.481 18.2944 17.767C18.232 18.053 18.2695 18.339 18.3568 18.6011C18.3942 18.3271 18.4317 18.0649 18.5315 17.8147C18.6189 17.5763 18.7686 17.3618 18.9683 17.1831C19.1679 17.0044 19.4175 16.8494 19.6671 16.6826C19.7918 16.5992 19.9166 16.5039 20.0164 16.3847C20.0414 16.3609 20.0539 16.337 20.0664 16.3132C20.0664 16.349 20.0788 16.3966 20.0788 16.4443C20.1911 17.0401 20.3908 16.4443 20.3908 16.4443C20.3908 16.4443 20.2785 15.3242 21.4515 15.2884L21.3891 14.1087L21.4764 13.1554Z" fill="#EBBBA1"/>
<path d="M17.3212 12.2624C17.2588 12.2863 17.1964 12.2147 17.2463 12.167C17.4834 11.8689 18.0574 11.3323 19.0307 11.3919C19.9666 11.4515 20.029 11.7497 20.7902 11.8928C21.0023 11.9285 21.0647 12.1909 20.9025 12.3101C20.8027 12.3817 20.6155 12.489 20.4283 12.489C19.7919 12.489 19.43 12.0597 18.8186 12.012C18.4068 11.9762 17.8827 12.0239 17.3212 12.2624Z" fill="#EBBBA1"/>
<path d="M19.7669 16.1946C19.7669 16.2542 19.7669 16.3257 19.7419 16.3852C19.717 16.4448 19.6796 16.5044 19.6296 16.5521C19.5423 16.6474 19.43 16.7189 19.3177 16.7904C19.0931 16.9215 18.8809 17.0287 18.7062 17.1717C18.5315 17.3147 18.3818 17.4935 18.2944 17.696C18.1946 17.8986 18.1322 18.137 18.0823 18.3753C18.0324 18.137 18.0324 17.8748 18.1073 17.6246C18.1821 17.3743 18.3319 17.136 18.544 16.9691C18.7561 16.8023 19.0057 16.6951 19.2303 16.5997C19.3426 16.5521 19.4549 16.5044 19.5548 16.4448C19.6047 16.4091 19.6421 16.3733 19.6796 16.3376L19.7045 16.3018C19.717 16.2899 19.717 16.278 19.7295 16.2661C19.7419 16.2542 19.7544 16.2303 19.7669 16.1946Z" fill="#272A24"/>
<path d="M24.2591 16.1946C24.2716 16.2184 24.2841 16.2542 24.2966 16.278C24.3091 16.2899 24.3091 16.3018 24.3215 16.3137L24.3465 16.3495C24.3839 16.3972 24.4214 16.4329 24.4713 16.4567C24.5711 16.5163 24.6834 16.564 24.7957 16.6117C25.0203 16.707 25.2699 16.8023 25.482 16.9811C25.6942 17.1479 25.8564 17.3862 25.9188 17.6365C25.9936 17.8867 25.9936 18.137 25.9437 18.3872C25.8938 18.1489 25.8314 17.9105 25.7316 17.708C25.6318 17.4935 25.4945 17.3266 25.3198 17.1836C25.1451 17.0406 24.9205 16.9334 24.7084 16.8023C24.5961 16.7308 24.4838 16.6593 24.3964 16.564C24.3465 16.5163 24.3091 16.4567 24.2841 16.3972C24.2591 16.3257 24.2467 16.2542 24.2591 16.1946Z" fill="#272A24"/>
<path d="M22.0879 17.517C21.6886 17.517 21.464 17.3263 21.3143 17.2072C21.2394 17.1476 21.202 17.1119 21.177 17.1119C20.6404 17.0999 20.2661 16.8735 20.1413 16.5041C20.0664 16.3015 20.2286 16.0394 20.3784 15.8606C20.3909 15.8368 20.4158 15.8368 20.4283 15.8368C20.4408 15.8368 20.4657 15.8487 20.4782 15.8606C20.4907 15.8725 20.4907 15.8845 20.4907 15.8964C20.4782 16.1109 20.4907 16.2777 20.5406 16.3849C20.6404 16.5875 20.8651 16.7067 21.202 16.7186C21.3767 16.7186 21.489 16.8139 21.6013 16.9093C21.7261 17.0165 21.8633 17.1238 22.1129 17.1238C22.35 17.1238 22.4623 17.0284 22.5746 16.945C22.6744 16.8735 22.7867 16.7901 22.9365 16.7901H22.9739C23.2484 16.7901 23.4606 16.6829 23.6228 16.4803C23.6977 16.373 23.7476 16.2062 23.7601 15.956C23.7601 15.9202 23.7975 15.9083 23.8225 15.9083C23.8349 15.9083 23.8599 15.9083 23.8724 15.944C23.9847 16.1585 24.1095 16.4564 23.9972 16.659C23.8225 17.0046 23.4481 17.2072 22.9864 17.2072C22.9739 17.2072 22.9365 17.2072 22.9365 17.2072H22.924C22.899 17.2191 22.8741 17.2429 22.8242 17.2787C22.6744 17.3502 22.4623 17.517 22.0879 17.517Z" fill="#272A24"/>
<path d="M21.2893 15.7889C21.3392 15.5386 21.3641 15.2884 21.3766 15.0382C21.3766 14.7879 21.3641 14.5496 21.3517 14.2993C21.3392 14.0491 21.3142 13.7989 21.3267 13.5367C21.3392 13.2745 21.3641 13.0124 21.464 12.774C21.4889 13.0362 21.5264 13.2745 21.5638 13.5248C21.6012 13.775 21.6387 14.0253 21.6511 14.2874C21.6636 14.5496 21.6636 14.8117 21.6137 15.0739C21.5638 15.3241 21.464 15.5863 21.2893 15.7889Z" fill="#272A24"/>
<path d="M17.2712 11.9047C17.2088 11.9286 17.1464 11.857 17.1963 11.8093C17.4334 11.535 17.9824 11.1534 18.9682 11.225C19.9166 11.2965 19.979 11.5827 20.7651 11.7258C20.9773 11.7616 21.0896 11.8928 20.9149 12.0001C20.815 12.0717 20.6903 12.1194 20.5031 12.1074C19.8542 12.0955 19.5422 11.7855 18.9183 11.7139C18.4941 11.69 17.8452 11.702 17.2712 11.9047Z" fill="#272A24"/>
<path d="M17.2587 18.8157V20.484L19.5048 21.4611L18.4067 19.7213L17.2587 18.8157Z" fill="#EBBBA1"/>
<path d="M16.0232 10.9271L15.4243 9.74744L14.713 9.87852L14.4759 10.7484L14.426 12.083L15.4118 13.8228L15.312 14.7642L16.1979 15.2528L15.9983 13.9181L16.0607 11.9519L16.0232 10.9271Z" fill="#EBBBA1"/>
<path d="M17.2587 20.7223L17.8202 26.0727L20.266 25.894L19.9166 24.7262L20.1911 24.1899L21.8882 22.331L19.38 21.3539L17.2587 20.7223Z" fill="white"/>
<path d="M19.8417 2.58582C19.8417 2.58582 15.5116 4.81416 15.8985 9.4496L15.5366 8.92528L15.4243 7.55491L15.9983 5.69597L17.4832 3.70595L18.8933 2.58582H19.8417V2.58582Z" fill="white"/>
<path d="M9.63439 28.4203C9.58448 29.2306 9.99627 34.2831 9.19765 35.1887C9.07287 35.3317 8.72347 35.582 8.37408 35.8322C7.91238 36.154 10.7325 35.9871 10.7325 35.9871L10.4455 32.8174L9.63439 28.4203Z" fill="#203456"/>
<path d="M16.9842 21.3419C16.9842 21.3419 14.6133 22.6765 13.5402 25.1194L13.2157 24.7619L13.8521 23.4392L14.8878 22.2356L16.6348 21.2466L16.9842 21.3419Z" fill="white"/>
<path d="M13.7897 23.1892C13.7897 23.1892 7.22606 25.8465 6.98897 26.5019C6.75188 27.1573 6.98897 27.5982 6.98897 27.5982L6.36505 26.8475L6.56471 26.204L7.57546 25.4652L9.75919 24.4165L13.2032 22.9628L13.615 22.9866L13.7897 23.1892Z" fill="white"/>
<path d="M17.6954 12.8339L18.781 12.5L19.954 12.6789L20.1037 13.0963L19.4424 13.1559H18.5814L17.6954 12.8339Z" fill="white"/>
<path d="M20.628 13.0846C20.4159 12.858 19.8419 12.369 19.0807 12.4048C18.3444 12.4525 17.8453 12.6791 17.5458 12.8103C17.471 12.8461 17.471 12.9415 17.5583 12.9653C17.9826 13.1084 18.9434 13.3827 19.9042 13.2873L19.5798 13.4543C19.5424 13.4662 19.5673 13.5258 19.6048 13.5139C19.8294 13.49 20.2536 13.4185 20.6155 13.2515C20.6654 13.2157 20.6779 13.1323 20.628 13.0846ZM18.3569 12.7507C18.4318 12.7149 18.5566 12.6672 18.7188 12.6195C18.7438 12.6075 18.7687 12.6314 18.7562 12.6553C18.7438 12.691 18.7438 12.7268 18.7438 12.7626C18.7438 12.8461 18.7687 12.9176 18.8061 12.9772C18.8186 12.9892 18.8062 13.0011 18.7937 13.0011C18.6439 12.9653 18.4817 12.9057 18.3444 12.8222C18.3195 12.8222 18.3195 12.7745 18.3569 12.7507ZM20.029 13.013C19.9542 13.0369 19.8169 13.0607 19.6547 13.0726C19.6297 13.0726 19.6172 13.0488 19.6297 13.0369C19.6921 12.9534 19.7171 12.858 19.7171 12.7507C19.7171 12.7387 19.7171 12.7149 19.7171 12.703C19.8294 12.7626 19.9417 12.8341 20.054 12.9295C20.0789 12.9534 20.0665 13.0011 20.029 13.013Z" fill="#272A24"/>
<path d="M26.4053 12.822L25.3321 12.5L24.1467 12.6789L24.0094 13.0963L24.6583 13.1559H25.5318L26.4053 12.822Z" fill="white"/>
<path d="M23.5604 13.2634C23.9223 13.4304 24.3341 13.5019 24.5711 13.5258C24.6086 13.5258 24.6211 13.4781 24.5961 13.4661L24.2717 13.2992C25.2325 13.3946 26.1933 13.1203 26.6176 12.9772C26.6925 12.9533 26.6925 12.846 26.6176 12.8222C26.3306 12.7029 25.8315 12.4644 25.0828 12.4286C24.3216 12.3928 23.7476 12.8818 23.5354 13.1084C23.473 13.1441 23.498 13.2276 23.5604 13.2634ZM25.8065 12.8341C25.6692 12.9176 25.5195 12.9772 25.3573 13.013C25.3448 13.013 25.3323 13.001 25.3323 12.9891C25.3698 12.9295 25.3947 12.846 25.3947 12.7745C25.3947 12.7387 25.3947 12.7029 25.3822 12.6671C25.3822 12.6433 25.3947 12.6194 25.4197 12.6314C25.5819 12.6671 25.7067 12.7268 25.7815 12.7506C25.8315 12.7625 25.8315 12.8102 25.8065 12.8341ZM24.1094 12.9295C24.2217 12.8341 24.3341 12.7506 24.4464 12.7029C24.4464 12.7148 24.4464 12.7387 24.4464 12.7506C24.4464 12.8579 24.4713 12.9533 24.5337 13.0368C24.5462 13.0487 24.5337 13.0726 24.5088 13.0726C24.3465 13.0607 24.2093 13.0368 24.1344 13.013C24.0845 13.001 24.072 12.9533 24.1094 12.9295Z" fill="#272A24"/>
<path d="M22.1253 18.5062C23.0986 18.5062 23.5104 18.6493 23.9596 18.6493C24.3464 18.6493 24.7208 18.4585 24.7208 18.4585C24.8081 18.5182 24.9703 18.4108 24.9953 18.3273C25.0203 18.2319 24.6958 17.9696 24.6709 18.1008C24.6459 18.2319 24.3589 18.3989 24.1717 18.3989C23.9721 18.3989 23.3856 17.9696 22.9738 17.9457C22.7866 17.9338 22.4497 18.0173 22.2625 18.065C22.1752 18.0888 22.0878 18.0888 21.988 18.065C21.8008 18.0173 21.4639 17.9338 21.2767 17.9457C20.8649 17.9696 20.2784 18.3989 20.0788 18.3989C19.8791 18.3989 19.6046 18.2319 19.5797 18.1008C19.5547 17.9696 19.2303 18.2319 19.2552 18.3273C19.2802 18.4228 19.4549 18.5182 19.5297 18.4585C19.5297 18.4585 19.9041 18.6493 20.2909 18.6493C20.7401 18.6493 21.1519 18.5062 22.1253 18.5062Z" fill="#272A24"/>
<path d="M23.8099 18.9828C23.8473 18.947 23.7974 18.8874 23.7475 18.9112C23.186 19.1378 22.6369 19.2094 22.1627 19.1974C21.6885 19.2094 21.152 19.1497 20.6154 18.9351C20.553 18.9112 20.5031 18.9828 20.553 19.0305C20.7402 19.2213 21.0646 19.4956 21.5388 19.6387C21.5138 19.6506 21.4764 19.6506 21.4514 19.6625C21.3516 19.6983 21.2643 19.746 21.1644 19.7937C20.9398 19.9249 21.0022 19.9607 21.2144 19.9249C21.3142 19.913 21.4015 19.8891 21.5014 19.8772C21.6885 19.8533 21.8757 19.8414 22.0629 19.8414C22.2501 19.8414 22.4372 19.8533 22.6244 19.8772C22.7617 19.8891 22.8989 19.913 23.0487 19.9487C23.0986 19.9607 23.1236 19.901 23.0861 19.8772C22.9738 19.7937 22.849 19.7222 22.7118 19.6745C23.2483 19.5075 23.6227 19.1736 23.8099 18.9828Z" fill="#272A24"/>
<path d="M14.4261 26.4422L13.1159 26.18C12.8414 26.1205 12.7041 25.8345 12.8414 25.6081L13.2157 24.9288L13.7148 25.1314L15.2372 25.6915L14.9502 26.2158L14.4261 26.4422Z" fill="#203456"/>
<path d="M21.6636 22.8316C21.1645 23.2129 20.7152 23.6419 20.3534 24.1304C20.1537 24.3807 20.1163 24.7143 20.2286 25.0122L20.6154 25.9894L23.4605 25.9536L23.9222 25.048C24.0844 24.7262 24.047 24.3449 23.8224 24.0709C23.4231 23.5823 22.9114 23.189 22.3499 22.8077C22.1378 22.6766 21.8508 22.6886 21.6636 22.8316Z" fill="#BF3F4A"/>
<path d="M6.15286 28.2297C6.15286 28.2297 7.00138 28.8374 7.18856 30.3389C7.37573 31.8403 7.75008 29.4571 7.31334 28.611C6.8766 27.7649 6.46482 27.5862 6.46482 27.5862L6.15286 28.2297Z" fill="#203456"/>
<path d="M22.0005 22.8913C22.0005 22.8913 23.1984 24.1544 23.1235 24.8336C23.0362 25.5128 22.1876 25.9776 22.1876 25.9776H23.6726L24.3589 24.7025L23.5228 23.7135C23.5228 23.7135 22.7242 23.0104 22.6868 22.9747C22.6369 22.9389 22.0129 22.7125 22.0129 22.7125V22.8913H22.0005Z" fill="#A43447"/>
<path d="M26.8921 11.9047C26.9545 11.9286 27.0169 11.857 26.967 11.8093C26.7299 11.535 26.1809 11.1534 25.1951 11.225C24.2467 11.2965 24.1843 11.5827 23.3982 11.7258C23.186 11.7616 23.0737 11.8928 23.2484 12.0001C23.3483 12.0717 23.473 12.1194 23.6602 12.1074C24.3091 12.0955 24.6211 11.7855 25.245 11.7139C25.6692 11.69 26.3181 11.702 26.8921 11.9047Z" fill="#272A24"/>
<path d="M11.7806 35.7966C12.8787 35.7966 15.3245 35.8681 15.886 35.8681H17.0714C17.5831 35.8681 19.5422 35.8204 20.2784 35.8204C20.79 35.8204 22.0254 35.8681 22.2999 35.8681H23.4854C23.7973 35.8681 25.5693 35.8443 26.031 35.8443C26.7422 35.8443 28.3519 35.8681 28.7138 35.8681H30.9225C31.0847 35.8681 31.6962 35.8681 31.8584 35.8681H32.8941C33.0064 35.8681 33.2435 35.8681 33.4931 35.8681L34.6161 28.6468L34.7908 27.6578L33.7551 26.9428L26.6549 26.0848L20.7027 25.8942L16.5473 26.0848L12.3047 26.5019L10.0086 27.2884L9.70917 28.1463L10.7948 35.8085C11.1816 35.8085 11.531 35.7966 11.7806 35.7966Z" fill="#E0DFDC"/>
<path d="M23.76 25.8463L26.393 26.0727L26.5926 23.8563L26.8547 20.7223L24.8457 21.0321L22.4124 22.4263L24.4838 24.7619L23.76 25.8463Z" fill="white"/>
<path d="M25.7316 26.1919C25.7316 26.1919 31.4092 27.1809 31.7212 29.8502C31.9832 32.1501 30.9974 34.6525 25.6442 35.9275C24.4338 36.2135 33.4058 35.856 33.4058 35.856L34.5538 28.6228L34.4664 27.455L33.0065 26.6924L28.3146 26.2753L25.7316 26.1919Z" fill="#C3C3C3"/>
<path d="M25.9438 26.0727C25.9438 26.0727 10.5329 26.7758 9.70933 28.158L9.63446 27.6099L10.0837 27.1928L11.4189 26.8592L14.3513 26.5017L19.0432 26.0489L23.473 26.0012L25.9438 26.0727Z" fill="white"/>
<path d="M22.2751 33.2464C23.171 33.2464 23.8973 32.6542 23.8973 31.9237C23.8973 31.1931 23.171 30.601 22.2751 30.601C21.3792 30.601 20.6529 31.1931 20.6529 31.9237C20.6529 32.6542 21.3792 33.2464 22.2751 33.2464Z" fill="#C3C3C3"/>
<path d="M29.0009 26.0491L30.6231 25.6321C30.8977 25.5725 31.0349 25.2865 30.8977 25.0601L30.5233 24.3809L30.0242 24.5834L28.6266 25.2388V25.6916L29.0009 26.0491Z" fill="#203456"/>
<path d="M22.3 33.5208C21.3142 33.5208 20.4657 32.8892 20.3284 32.055C20.2535 31.6141 20.4657 31.2686 20.6653 31.0541C21.0522 30.6132 21.726 30.3033 22.3 30.3033C22.874 30.3033 23.5354 30.6132 23.9347 31.0541C24.1218 31.2686 24.3465 31.6141 24.2716 32.055C24.1343 32.8892 23.2858 33.5208 22.3 33.5208ZM22.3 30.7323C21.8633 30.7323 21.4515 30.8992 21.1894 31.1852C20.9648 31.4116 20.865 31.6976 20.8899 31.9835C20.9523 32.6151 21.5638 33.0918 22.3 33.0918C23.0362 33.0918 23.6477 32.6151 23.7101 31.9835C23.735 31.6976 23.6352 31.4116 23.4106 31.1852C23.1485 30.8992 22.7367 30.7323 22.3 30.7323Z" fill="#272A24"/>
<path d="M41.9036 35.6774C40.5684 35.6417 39.2332 35.6059 37.898 35.5821C40.0568 32.5435 41.1923 29.0162 41.1923 25.3222C41.1923 21.509 39.9819 17.8507 37.6859 14.7524C35.4772 11.7733 32.445 9.52116 28.9011 8.21036C28.951 7.5073 28.9385 6.95915 28.8512 6.56591C28.7638 6.17267 28.3895 4.81422 27.1915 3.6345C25.9437 2.40712 24.2591 1.78748 22.1752 1.78748C20.1038 1.78748 18.4317 2.39521 17.2088 3.58684C16.2355 4.54014 15.7363 5.68411 15.4119 6.56591C15.2622 6.98298 15.1998 7.51922 15.2497 8.17461C11.6808 9.46157 8.62362 11.7138 6.38998 14.7047C4.06899 17.8149 2.84611 21.4851 2.84611 25.3222C2.84611 29.0281 3.98164 32.5554 6.14041 35.594C4.91753 35.6179 3.34524 35.6536 2.12236 35.6894C1.83535 35.7013 1.83535 36.1064 2.12236 36.1064C4.44335 36.1779 7.13869 36.2137 9.45968 36.2494C13.7023 36.3209 17.945 36.3567 22.1877 36.3567C26.4304 36.3567 30.673 36.3209 34.9157 36.2494C37.2492 36.2137 39.5951 36.166 41.9286 36.0945C42.1781 36.0945 42.1906 35.6894 41.9036 35.6774ZM28.7888 9.05642C28.8013 9.00875 28.8512 8.97301 28.9011 8.99684C35.8141 11.6661 40.4312 18.1605 40.4312 25.3222C40.4312 27.1573 40.1317 28.9328 39.5577 30.6249C39.4953 30.8156 39.2083 30.8037 39.1708 30.613L38.5469 27.8246C38.5095 27.6697 38.5095 27.5029 38.5344 27.336C38.5968 26.9905 38.5968 26.6806 38.4845 26.4423C38.3722 26.2159 38.185 26.061 37.9105 25.9895C35.6894 25.3222 29.0259 21.652 28.5392 21.3898C28.2273 21.1038 27.9153 20.8536 27.6283 20.651C27.2664 20.4007 27.0668 19.9956 27.1042 19.5785L27.2165 18.4941C27.6033 17.7553 27.9652 16.8258 28.2023 15.6938C28.2273 15.5627 28.3271 15.4436 28.4519 15.3959C28.5517 15.3482 28.639 15.2886 28.7139 15.2171C29.0508 14.8835 29.2754 14.2996 29.2505 13.9779C29.2505 13.8825 29.2754 13.7753 29.3378 13.6919C30.1115 12.5598 30.0741 11.0464 29.837 10.2123C29.7247 9.84289 29.55 9.60457 29.3129 9.52116C29.1382 9.44966 28.951 9.44966 28.7763 9.52116C28.7513 9.53307 28.7389 9.52116 28.7389 9.52116C28.7389 9.52116 28.7264 9.50924 28.7264 9.48541C28.7513 9.31858 28.7638 9.1875 28.7888 9.05642ZM28.2772 25.8346L28.4768 25.9895C28.1649 25.9537 27.8404 25.9299 27.5285 25.9061C27.4661 25.9061 27.3038 25.8942 27.0917 25.8703C26.8921 25.8584 26.7548 25.6916 26.7673 25.5128C26.9045 23.7731 26.9669 22.3431 27.0044 21.4851C27.0168 21.1991 27.3662 21.0442 27.6033 21.223C27.8654 21.4255 28.2023 21.7115 28.5766 22.0809C29.5999 23.07 30.2113 23.9041 30.3236 24.214L28.3645 25.1196C28.0775 25.2626 28.0276 25.6439 28.2772 25.8346ZM28.5517 10.4268C28.5766 10.3672 28.8512 9.8429 29.1257 9.95014C29.1881 9.97397 29.2879 10.1051 29.3503 10.3315C29.55 11.0345 29.6498 12.5121 28.7763 13.6084C28.7389 13.6561 28.7139 13.7276 28.7264 13.7872C28.7638 13.9898 28.6016 14.6094 28.3396 14.8597C28.4144 14.2877 28.4643 13.7038 28.4768 13.096C28.4768 12.9411 28.5766 12.7981 28.7264 12.7505L28.7389 12.7386C28.8512 12.7028 28.926 12.5836 28.9011 12.4645C28.8137 12.0117 29.0134 11.4754 29.1382 11.2014C29.1631 11.1418 29.1507 11.0703 29.0883 11.0345C29.0633 11.0107 29.0259 11.0107 29.0009 11.0107C28.9635 11.0107 28.9385 11.0226 28.9136 11.0464C28.8137 11.1179 28.7139 11.1894 28.6016 11.2609C28.5642 11.2848 28.5143 11.2848 28.4768 11.2609C28.4394 11.2371 28.4144 11.2014 28.4144 11.1537C28.4269 10.9511 28.4768 10.7128 28.5517 10.4268ZM15.8611 6.73274C16.3103 5.51728 17.5083 2.27604 22.1503 2.27604C24.0969 2.27604 25.6567 2.84803 26.8047 3.98008C27.9028 5.06446 28.2522 6.31567 28.3271 6.67316C28.5392 7.61455 28.2273 9.46157 28.0276 10.4864C27.9902 10.6651 27.9652 10.82 27.9402 10.9273C27.9028 11.0822 27.9028 11.2371 27.9153 11.392C27.9153 11.4516 27.9278 11.5112 27.9278 11.5588C28.1149 13.8825 27.6782 15.7772 27.2789 16.945C27.1666 17.2906 27.0293 17.6362 26.8796 17.9579L26.8297 18.0532C26.5177 18.7086 26.056 19.1972 25.7316 19.4951C25.7191 19.507 25.7066 19.507 25.6941 19.4951C25.6816 19.4951 25.6692 19.4832 25.6692 19.4713C25.6692 19.3759 25.6816 19.2687 25.6816 19.1495C25.6816 19.0899 25.6567 19.0304 25.5943 19.0065C25.507 18.9708 25.4071 19.0065 25.3822 19.0899C25.1451 19.7811 24.4837 21.366 23.5978 21.366C22.9614 21.366 22.8116 21.0681 22.6619 20.7701C22.5496 20.5318 22.4248 20.2935 22.0504 20.2935C21.6262 20.2935 21.4764 20.5795 21.3392 20.8536C21.1894 21.1515 21.0397 21.4255 20.553 21.4255C20.5405 21.4255 20.5405 21.4255 20.5281 21.4255C19.692 21.4136 18.9932 19.7453 18.7312 19.0304C18.7062 18.9708 18.6563 18.935 18.5814 18.935C18.5689 18.935 18.5565 18.935 18.5565 18.935C18.4816 18.9469 18.4317 19.0065 18.4317 19.0899C18.4317 19.1376 18.4317 19.1853 18.4442 19.2329C18.4442 19.2687 18.4192 19.2806 18.4067 19.2806C18.3942 19.2806 18.3693 19.2925 18.3443 19.2687C17.9825 18.9708 17.4833 18.4941 17.1963 17.9341C16.7471 16.9212 16.4601 15.7772 16.3353 14.5379C16.2105 13.2867 16.2979 12.2023 16.3478 11.678C16.3603 11.5588 16.3727 11.4516 16.3977 11.3324C16.4102 11.2133 16.4102 11.0941 16.3603 10.9749C16.3478 10.9273 16.3228 10.8677 16.2979 10.8081C16.0857 10.1885 15.4244 7.93629 15.8611 6.73274ZM26.2681 22.9032L25.0328 24.3927C24.9329 24.5119 24.7458 24.4999 24.6709 24.3808C24.2466 23.7731 23.6726 23.2487 22.9738 22.7721C22.899 22.7244 22.9239 22.6053 23.0237 22.5933C23.8348 22.4742 24.5461 22.0929 24.9579 21.6043C25.2823 21.497 25.6442 21.354 25.9811 21.211C26.2182 21.1157 26.4678 21.2825 26.4678 21.5209C26.4678 21.7592 26.4179 22.3669 26.3929 22.641C26.3555 22.7482 26.318 22.8317 26.2681 22.9032ZM26.3555 24.0114C26.3305 24.5119 26.2806 25.1315 26.2182 25.8227C25.7191 25.7869 25.2574 25.7631 25.1825 25.7512C24.8331 25.7392 24.4837 25.7273 24.1343 25.7154C24.2341 25.5486 24.334 25.3818 24.3964 25.2745C24.4463 25.203 24.5461 25.1792 24.621 25.2507C24.7957 25.4175 25.0827 25.3937 25.2324 25.203L26.1683 23.9518C26.2307 23.8684 26.3555 23.916 26.3555 24.0114ZM19.5423 24.5119C19.4674 24.6191 19.3052 24.6191 19.2178 24.5238L17.9076 23.1177C17.7703 22.9627 17.683 22.784 17.6705 22.5814C17.6331 22.1763 17.6081 21.783 17.5831 21.4255C17.5707 21.2468 17.7828 21.1276 17.945 21.211C18.3942 21.4613 18.9932 21.7354 19.692 21.9141C20.0289 22.1763 20.5904 22.4265 21.0896 22.5218C21.2144 22.5457 21.2518 22.6887 21.1645 22.7721C20.5281 23.3321 19.979 23.916 19.5423 24.5119ZM20.0664 25.7154C19.8542 25.7273 19.6421 25.7273 19.43 25.7392C19.2802 25.7512 18.6189 25.7869 18.0448 25.8227C17.9949 25.2626 17.945 24.5714 17.9076 24.214C17.9076 24.1425 18.0074 24.1067 18.0573 24.1663L18.9807 25.2745C19.1679 25.489 19.5048 25.5009 19.7045 25.2983C19.7544 25.2388 19.8542 25.2507 19.8917 25.3222L20.0664 25.7154ZM15.4868 25.489L13.6524 24.9289C13.4528 24.8694 13.3654 24.6549 13.4777 24.4761C14.1391 23.4036 15.0251 22.3669 16.2979 21.64C16.6473 21.4375 17.0965 21.652 17.1339 22.0452C17.2088 23.0342 17.3585 24.2616 17.5207 25.4533C17.5457 25.6677 17.3835 25.8584 17.1589 25.8822C17.1464 25.8822 17.1339 25.8822 17.1214 25.8822C16.6473 25.918 16.1606 25.9657 15.6864 26.0133C15.8112 25.8346 15.7239 25.5605 15.4868 25.489ZM17.4708 19.6381L17.4459 19.3759C17.7578 19.793 18.1322 20.222 18.5814 20.6271C18.7062 20.7344 18.806 20.8536 18.8934 20.9846C18.4317 20.7701 18.0698 20.5199 17.8327 20.3173C17.6206 20.1505 17.4833 19.9003 17.4708 19.6381ZM20.5904 24.3212C20.9274 23.8803 21.3267 23.499 21.7884 23.1415C21.9631 23.0104 22.2251 22.9985 22.4123 23.1177C22.9239 23.4513 23.3856 23.8207 23.7475 24.2616C23.9596 24.5119 23.9846 24.8574 23.8348 25.1553L23.5603 25.6916C23.0986 25.6797 22.6369 25.6797 22.1877 25.6797C21.701 25.6797 21.2019 25.6916 20.7152 25.6916L20.4906 25.1196C20.3658 24.8574 20.4157 24.5595 20.5904 24.3212ZM26.081 20.5318C25.9312 20.5914 25.794 20.6391 25.6442 20.6867C25.6442 20.6867 25.6442 20.6748 25.6317 20.6748C25.6317 20.6748 25.6317 20.6748 25.6193 20.6629C25.8439 20.4484 26.2057 20.0671 26.5926 19.4951L26.5427 19.9003C26.5427 20.1862 26.3555 20.4246 26.081 20.5318ZM15.8986 11.2252C15.8861 11.2609 15.8611 11.2848 15.8362 11.2967C15.7987 11.3086 15.7613 11.3086 15.7239 11.2967C15.5866 11.2252 15.4618 11.1418 15.3495 11.0464C15.2996 11.0107 15.2247 11.0107 15.1748 11.0464C15.1249 11.0822 15.0999 11.1537 15.1249 11.2014C15.2622 11.4993 15.4618 12.0593 15.3495 12.5241C15.3245 12.6194 15.3869 12.7147 15.4868 12.7386C15.4992 12.7386 15.4992 12.7386 15.5117 12.7386C15.649 12.7862 15.7488 12.9173 15.7488 13.0603C15.7488 13.5727 15.7613 14.097 15.8112 14.5975C15.8237 14.6809 15.8237 14.7524 15.8362 14.8358C15.8362 14.8477 15.8237 14.8597 15.8237 14.8597C15.8112 14.8597 15.7987 14.8597 15.7862 14.8477C15.5242 14.5975 15.3745 13.9659 15.3994 13.7634C15.4119 13.6919 15.3869 13.6323 15.3495 13.5727C14.4885 12.4764 14.5758 10.9988 14.788 10.3076C14.8504 10.0812 14.9502 9.95014 15.0126 9.92631C15.0375 9.91439 15.0625 9.91439 15.0875 9.91439C15.3495 9.91439 15.5741 10.403 15.5866 10.403C15.6739 10.6294 15.8486 11.0822 15.8986 11.2252ZM3.56986 25.3222C3.56986 18.1247 8.21183 11.6184 15.1873 8.97301C15.2497 8.94917 15.3245 8.98492 15.337 9.05642C15.3495 9.15175 15.3745 9.27091 15.3869 9.36624C15.3994 9.43774 15.337 9.49732 15.2622 9.48541C15.1249 9.46157 14.9876 9.47349 14.8504 9.52116C14.6133 9.61649 14.4386 9.85481 14.3263 10.2123C14.0767 11.0464 14.0393 12.5002 14.788 13.6442C14.8753 13.7634 14.9128 13.9183 14.9128 14.0613C14.9003 14.4188 15.1498 14.9192 15.4618 15.2171C15.5367 15.2886 15.624 15.3482 15.7114 15.3959C15.8611 15.4674 15.9609 15.5985 15.9859 15.7415C16.1107 16.4922 16.3353 17.4693 16.8968 18.4941L16.9967 19.8526C17.0341 20.2816 16.8095 20.6867 16.4351 20.9131C15.7488 21.3183 15.1374 21.7592 14.6008 22.2597C12.8538 22.927 7.27595 25.0958 6.50229 25.8465C6.12794 26.204 6.07802 26.5615 6.19033 26.9428C6.12794 27.2884 5.71615 29.2307 5.01736 31.1969C4.95496 31.3637 4.71787 31.3637 4.65548 31.1969C3.94421 29.338 3.56986 27.3599 3.56986 25.3222ZM6.73938 35.165C6.21529 34.4381 5.75358 33.6636 5.35427 32.8652C5.17958 32.5196 5.1671 32.1264 5.30436 31.7689C5.81598 30.3985 6.20281 28.9686 6.42742 28.0391C6.46485 27.8961 6.65203 27.8723 6.7269 27.9914C7.00143 28.4085 7.30091 28.8613 7.47561 29.3975C7.50056 29.481 7.62535 29.4571 7.62535 29.3737C7.60039 28.8971 7.50056 28.2297 7.15117 27.7412C6.60212 26.9905 6.41494 26.5734 6.83921 26.1682C7.3633 25.6677 10.7824 24.2497 13.2906 23.2607C13.4403 23.2011 13.5651 23.3679 13.4777 23.4871C13.1783 23.9041 12.9162 24.3569 12.7041 24.8336C12.6292 24.9647 12.7041 25.1196 12.8538 25.1673L14.6881 25.7273C14.9003 25.7988 14.8753 26.0967 14.6507 26.1206C13.2531 26.2874 11.8555 26.5019 10.4829 26.7521C10.1709 26.8117 9.88395 26.9666 9.68429 27.193C9.43472 27.4909 9.34737 27.8603 9.42224 28.2297L10.5203 35.4987C10.1585 35.4987 9.80907 35.5106 9.4472 35.5106C8.82328 35.5225 8.19936 35.5344 7.56296 35.5464C7.22604 35.5702 6.92656 35.4272 6.73938 35.165ZM11.0195 35.5106L9.89642 28.1463C9.84651 27.908 9.9089 27.6697 10.0836 27.4909C10.1959 27.3599 10.3706 27.2764 10.5578 27.2407C14.4011 26.5257 18.3069 26.1563 22.1877 26.1563C26.0685 26.1563 29.9742 26.5138 33.8176 27.2407C34.0048 27.2764 34.1795 27.3718 34.2918 27.4909C34.454 27.6697 34.5289 27.908 34.4789 28.1463L33.2311 35.5106C29.5375 35.4629 25.8439 35.4272 22.1503 35.4272C18.4442 35.4272 14.7256 35.451 11.0195 35.5106ZM34.2044 35.5225C33.9549 35.5225 33.7802 35.308 33.8176 35.0816L34.9656 28.2417C35.053 27.8484 34.9282 27.4552 34.6412 27.1454C34.454 26.9428 34.1919 26.8236 33.9049 26.764C32.5198 26.5019 31.1222 26.2993 29.7247 26.1325C29.5001 26.1086 29.2879 26.0133 29.1132 25.8822L28.9635 25.7631C28.8137 25.6439 28.8387 25.4294 29.0134 25.346C29.0134 25.346 30.4858 24.7979 30.8228 24.4284C30.9351 24.2974 30.8727 24.0233 30.3611 23.3441C30.3361 23.3083 30.2987 23.2606 30.2737 23.2249C30.1614 23.0819 30.3361 22.8912 30.4983 22.9866C32.7944 24.214 36.2384 25.9776 37.7608 26.4304C37.9355 26.4781 37.9979 26.5734 38.0353 26.633C38.2474 27.0858 37.7608 28.1702 37.2991 29.2188C36.9247 30.0529 36.5129 30.9824 36.3008 31.8642C36.2758 31.9834 36.4381 32.043 36.5005 31.9357C36.8623 31.2446 37.4488 30.0887 37.7483 29.4095C37.8107 29.2665 37.8731 29.1354 37.9355 28.9924C38.0103 28.8256 38.2724 28.8494 38.3098 29.0281L38.8464 31.471C38.9337 31.8761 38.8963 32.3051 38.7091 32.6745C38.2974 33.5206 37.8232 34.3309 37.2866 35.0935C37.0869 35.3914 36.7375 35.5583 36.3632 35.5464C35.8641 35.5344 35.3774 35.5344 34.8783 35.5225C34.6536 35.5225 34.429 35.5225 34.2044 35.5225Z" fill="#272A24"/>
<path d="M68.1625 18.138C68.8465 18.138 69.4925 17.9923 70.1005 17.701C70.7212 17.397 71.2595 16.9663 71.7155 16.409L73.2165 17.853C72.5958 18.575 71.8295 19.145 70.9175 19.563C70.0182 19.981 69.0745 20.19 68.0865 20.19C67.1238 20.19 66.2182 20.0127 65.3695 19.658C64.5335 19.3033 63.8052 18.822 63.1845 18.214C62.5765 17.5933 62.0952 16.865 61.7405 16.029C61.3858 15.193 61.2085 14.3 61.2085 13.35C61.2085 12.3873 61.3858 11.488 61.7405 10.652C62.0952 9.816 62.5765 9.094 63.1845 8.486C63.8052 7.86533 64.5335 7.37767 65.3695 7.023C66.2182 6.66833 67.1238 6.491 68.0865 6.491C69.0998 6.491 70.0625 6.7 70.9745 7.118C71.8992 7.536 72.6655 8.11233 73.2735 8.847L71.7345 10.367C71.2658 9.78433 70.7148 9.33467 70.0815 9.018C69.4482 8.68867 68.7832 8.524 68.0865 8.524C67.4405 8.524 66.8388 8.65067 66.2815 8.904C65.7242 9.14467 65.2428 9.48033 64.8375 9.911C64.4448 10.3417 64.1282 10.8547 63.8875 11.45C63.6595 12.0327 63.5455 12.666 63.5455 13.35C63.5455 14.0213 63.6595 14.6547 63.8875 15.25C64.1282 15.8327 64.4512 16.3393 64.8565 16.77C65.2745 17.188 65.7685 17.5237 66.3385 17.777C66.9085 18.0177 67.5165 18.138 68.1625 18.138ZM79.176 20V6.7H85.085C86.3896 6.7 87.4536 7.07367 88.277 7.821C89.113 8.56833 89.531 9.53733 89.531 10.728C89.531 11.5893 89.2903 12.343 88.809 12.989C88.3403 13.635 87.707 14.0973 86.909 14.376L89.702 20H87.175L84.61 14.68H81.456V20H79.176ZM84.895 8.619H81.456V12.856H84.895C85.5916 12.856 86.1553 12.666 86.586 12.286C87.0166 11.8933 87.232 11.3803 87.232 10.747C87.232 10.1137 87.0166 9.60067 86.586 9.208C86.1553 8.81533 85.5916 8.619 84.895 8.619ZM95.5516 20V6.7H105.071V8.638H97.8316V12.343H102.886V14.243H97.8316V18.062H105.147V20H95.5516ZM115.611 20H113.236L110.329 6.7H112.647L114.623 16.447L117.473 6.7H119.639L122.489 16.447L124.465 6.7H126.707L123.8 20H121.425L118.518 9.911L115.611 20ZM140.485 20V6.7H145.349C146.299 6.7 147.186 6.871 148.009 7.213C148.832 7.555 149.535 8.02367 150.118 8.619C150.713 9.21433 151.176 9.92367 151.505 10.747C151.847 11.5577 152.018 12.4317 152.018 13.369C152.018 14.3063 151.847 15.1803 151.505 15.991C151.176 16.8017 150.713 17.5047 150.118 18.1C149.535 18.6827 148.832 19.145 148.009 19.487C147.186 19.829 146.299 20 145.349 20H140.485ZM145.406 8.676H142.765V18.024H145.406C146.001 18.024 146.559 17.9037 147.078 17.663C147.597 17.4223 148.047 17.0993 148.427 16.694C148.807 16.276 149.105 15.782 149.32 15.212C149.548 14.642 149.662 14.0277 149.662 13.369C149.662 12.7103 149.548 12.096 149.32 11.526C149.105 10.9433 148.807 10.443 148.427 10.025C148.047 9.607 147.597 9.27767 147.078 9.037C146.559 8.79633 146.001 8.676 145.406 8.676ZM158.197 20V6.7H167.716V8.638H160.477V12.343H165.531V14.243H160.477V18.062H167.792V20H158.197ZM177.794 20L172.626 6.7H175.077L179.162 17.701L183.285 6.7H185.641L180.435 20H177.794Z" fill="#FFBE09"/>
<path d="M66.5521 31.9185H62.6737V36H61.455V26.7578H67.1806V27.7607H62.6737V30.9219H66.5521V31.9185ZM72.2612 30.1855C72.0835 30.1559 71.8909 30.1411 71.6836 30.1411C70.9134 30.1411 70.3908 30.4691 70.1157 31.125V36H68.9414V29.1318H70.084L70.103 29.9253C70.4881 29.3117 71.034 29.0049 71.7407 29.0049C71.9692 29.0049 72.1427 29.0345 72.2612 29.0938V30.1855ZM73.5587 32.5024C73.5587 31.8296 73.6899 31.2244 73.9522 30.687C74.2188 30.1496 74.587 29.7349 75.0567 29.4429C75.5307 29.1509 76.0702 29.0049 76.6754 29.0049C77.6106 29.0049 78.366 29.3286 78.9415 29.9761C79.5213 30.6235 79.8111 31.4847 79.8111 32.5596V32.6421C79.8111 33.3107 79.6821 33.9116 79.4239 34.4448C79.17 34.9738 78.804 35.3864 78.3258 35.6826C77.8518 35.9788 77.3059 36.127 76.6881 36.127C75.7571 36.127 75.0017 35.8032 74.422 35.1558C73.8464 34.5083 73.5587 33.6514 73.5587 32.585V32.5024ZM74.7394 32.6421C74.7394 33.4038 74.915 34.0153 75.2662 34.4766C75.6217 34.9378 76.0956 35.1685 76.6881 35.1685C77.2848 35.1685 77.7587 34.9357 78.11 34.4702C78.4612 34.0005 78.6368 33.3446 78.6368 32.5024C78.6368 31.7492 78.457 31.1398 78.0973 30.6743C77.7418 30.2046 77.2678 29.9697 76.6754 29.9697C76.0956 29.9697 75.628 30.2004 75.2726 30.6616C74.9171 31.1229 74.7394 31.783 74.7394 32.6421ZM83.0446 29.1318L83.0827 29.9951C83.6075 29.335 84.293 29.0049 85.1394 29.0049C86.5909 29.0049 87.3229 29.8237 87.3356 31.4614V36H86.1613V31.4551C86.1571 30.96 86.0428 30.5939 85.8186 30.3569C85.5985 30.12 85.2536 30.0015 84.7839 30.0015C84.403 30.0015 84.0687 30.103 83.781 30.3062C83.4932 30.5093 83.2689 30.7759 83.1081 31.106V36H81.9338V29.1318H83.0446ZM91.3499 27.4688V29.1318H92.6321V30.0396H91.3499V34.2988C91.3499 34.5739 91.407 34.7812 91.5213 34.9209C91.6355 35.0563 91.8302 35.124 92.1053 35.124C92.2407 35.124 92.4269 35.0986 92.6639 35.0479V36C92.3549 36.0846 92.0545 36.127 91.7625 36.127C91.2378 36.127 90.8421 35.9683 90.5755 35.6509C90.3089 35.3335 90.1756 34.8828 90.1756 34.2988V30.0396H88.9251V29.1318H90.1756V27.4688H91.3499ZM97.5097 36.127C96.5787 36.127 95.8212 35.8223 95.2372 35.2129C94.6532 34.5993 94.3612 33.7804 94.3612 32.7563V32.5405C94.3612 31.8592 94.4903 31.252 94.7484 30.7188C95.0108 30.1813 95.3747 29.7624 95.8402 29.4619C96.31 29.1572 96.8178 29.0049 97.3637 29.0049C98.2566 29.0049 98.9506 29.299 99.4457 29.8872C99.9408 30.4754 100.188 31.3175 100.188 32.4136V32.9023H95.5355C95.5525 33.5794 95.7492 34.1274 96.1259 34.5464C96.5067 34.9611 96.9892 35.1685 97.5731 35.1685C97.9879 35.1685 98.3391 35.0838 98.6269 34.9146C98.9146 34.7453 99.1664 34.521 99.3822 34.2417L100.1 34.8003C99.524 35.6847 98.6607 36.127 97.5097 36.127ZM97.3637 29.9697C96.8897 29.9697 96.4919 30.1432 96.1703 30.4902C95.8487 30.833 95.6498 31.3154 95.5736 31.9375H99.0141V31.8486C98.9802 31.252 98.8194 30.7907 98.5316 30.4648C98.2439 30.1348 97.8546 29.9697 97.3637 29.9697ZM103.314 29.1318L103.352 29.9951C103.877 29.335 104.562 29.0049 105.409 29.0049C106.86 29.0049 107.592 29.8237 107.605 31.4614V36H106.431V31.4551C106.426 30.96 106.312 30.5939 106.088 30.3569C105.868 30.12 105.523 30.0015 105.053 30.0015C104.672 30.0015 104.338 30.103 104.05 30.3062C103.763 30.5093 103.538 30.7759 103.377 31.106V36H102.203V29.1318H103.314ZM109.74 32.5088C109.74 31.4551 109.99 30.6087 110.489 29.9697C110.989 29.3265 111.643 29.0049 112.451 29.0049C113.255 29.0049 113.892 29.2799 114.361 29.8301V26.25H115.536V36H114.457L114.4 35.2637C113.93 35.8392 113.276 36.127 112.438 36.127C111.643 36.127 110.993 35.8011 110.489 35.1494C109.99 34.4977 109.74 33.6471 109.74 32.5977V32.5088ZM110.915 32.6421C110.915 33.4207 111.075 34.0301 111.397 34.4702C111.719 34.9103 112.163 35.1304 112.73 35.1304C113.475 35.1304 114.019 34.7961 114.361 34.1274V30.9727C114.01 30.3252 113.471 30.0015 112.743 30.0015C112.167 30.0015 111.719 30.2236 111.397 30.668C111.075 31.1123 110.915 31.7703 110.915 32.6421ZM121.603 32.5088C121.603 31.4551 121.853 30.6087 122.352 29.9697C122.851 29.3265 123.505 29.0049 124.313 29.0049C125.117 29.0049 125.754 29.2799 126.224 29.8301V26.25H127.398V36H126.319L126.262 35.2637C125.792 35.8392 125.138 36.127 124.301 36.127C123.505 36.127 122.855 35.8011 122.352 35.1494C121.853 34.4977 121.603 33.6471 121.603 32.5977V32.5088ZM122.777 32.6421C122.777 33.4207 122.938 34.0301 123.26 34.4702C123.581 34.9103 124.026 35.1304 124.593 35.1304C125.337 35.1304 125.881 34.7961 126.224 34.1274V30.9727C125.873 30.3252 125.333 30.0015 124.605 30.0015C124.03 30.0015 123.581 30.2236 123.26 30.668C122.938 31.1123 122.777 31.7703 122.777 32.6421ZM132.726 36.127C131.795 36.127 131.038 35.8223 130.454 35.2129C129.87 34.5993 129.578 33.7804 129.578 32.7563V32.5405C129.578 31.8592 129.707 31.252 129.965 30.7188C130.228 30.1813 130.592 29.7624 131.057 29.4619C131.527 29.1572 132.035 29.0049 132.58 29.0049C133.473 29.0049 134.167 29.299 134.662 29.8872C135.158 30.4754 135.405 31.3175 135.405 32.4136V32.9023H130.752C130.769 33.5794 130.966 34.1274 131.343 34.5464C131.724 34.9611 132.206 35.1685 132.79 35.1685C133.205 35.1685 133.556 35.0838 133.844 34.9146C134.131 34.7453 134.383 34.521 134.599 34.2417L135.316 34.8003C134.741 35.6847 133.878 36.127 132.726 36.127ZM132.58 29.9697C132.107 29.9697 131.709 30.1432 131.387 30.4902C131.065 30.833 130.867 31.3154 130.79 31.9375H134.231V31.8486C134.197 31.252 134.036 30.7907 133.748 30.4648C133.461 30.1348 133.071 29.9697 132.58 29.9697ZM139.597 34.4067L141.298 29.1318H142.498L140.035 36H139.14L136.652 29.1318H137.852L139.597 34.4067ZM147.039 36.127C146.108 36.127 145.351 35.8223 144.767 35.2129C144.183 34.5993 143.891 33.7804 143.891 32.7563V32.5405C143.891 31.8592 144.02 31.252 144.278 30.7188C144.54 30.1813 144.904 29.7624 145.37 29.4619C145.839 29.1572 146.347 29.0049 146.893 29.0049C147.786 29.0049 148.48 29.299 148.975 29.8872C149.47 30.4754 149.718 31.3175 149.718 32.4136V32.9023H145.065C145.082 33.5794 145.279 34.1274 145.655 34.5464C146.036 34.9611 146.519 35.1685 147.103 35.1685C147.517 35.1685 147.869 35.0838 148.156 34.9146C148.444 34.7453 148.696 34.521 148.912 34.2417L149.629 34.8003C149.053 35.6847 148.19 36.127 147.039 36.127ZM146.893 29.9697C146.419 29.9697 146.021 30.1432 145.7 30.4902C145.378 30.833 145.179 31.3154 145.103 31.9375H148.544V31.8486C148.51 31.252 148.349 30.7907 148.061 30.4648C147.773 30.1348 147.384 29.9697 146.893 29.9697ZM153.008 36H151.834V26.25H153.008V36ZM155.233 32.5024C155.233 31.8296 155.364 31.2244 155.626 30.687C155.893 30.1496 156.261 29.7349 156.731 29.4429C157.205 29.1509 157.744 29.0049 158.349 29.0049C159.285 29.0049 160.04 29.3286 160.616 29.9761C161.195 30.6235 161.485 31.4847 161.485 32.5596V32.6421C161.485 33.3107 161.356 33.9116 161.098 34.4448C160.844 34.9738 160.478 35.3864 160 35.6826C159.526 35.9788 158.98 36.127 158.362 36.127C157.431 36.127 156.676 35.8032 156.096 35.1558C155.52 34.5083 155.233 33.6514 155.233 32.585V32.5024ZM156.413 32.6421C156.413 33.4038 156.589 34.0153 156.94 34.4766C157.296 34.9378 157.77 35.1685 158.362 35.1685C158.959 35.1685 159.433 34.9357 159.784 34.4702C160.135 34.0005 160.311 33.3446 160.311 32.5024C160.311 31.7492 160.131 31.1398 159.771 30.6743C159.416 30.2046 158.942 29.9697 158.349 29.9697C157.77 29.9697 157.302 30.2004 156.947 30.6616C156.591 31.1229 156.413 31.783 156.413 32.6421ZM169.41 32.6421C169.41 33.6873 169.17 34.5295 168.692 35.1685C168.214 35.8075 167.567 36.127 166.75 36.127C165.916 36.127 165.26 35.8625 164.782 35.3335V38.6406H163.608V29.1318H164.681L164.738 29.8936C165.216 29.3011 165.88 29.0049 166.731 29.0049C167.556 29.0049 168.208 29.3159 168.686 29.938C169.168 30.5601 169.41 31.4255 169.41 32.5342V32.6421ZM168.235 32.5088C168.235 31.7344 168.07 31.1229 167.74 30.6743C167.41 30.2257 166.957 30.0015 166.382 30.0015C165.671 30.0015 165.138 30.3167 164.782 30.9473V34.229C165.133 34.8553 165.671 35.1685 166.394 35.1685C166.957 35.1685 167.404 34.9463 167.734 34.502C168.068 34.0534 168.235 33.389 168.235 32.5088ZM174.408 36.127C173.477 36.127 172.719 35.8223 172.135 35.2129C171.551 34.5993 171.259 33.7804 171.259 32.7563V32.5405C171.259 31.8592 171.388 31.252 171.646 30.7188C171.909 30.1813 172.273 29.7624 172.738 29.4619C173.208 29.1572 173.716 29.0049 174.262 29.0049C175.155 29.0049 175.849 29.299 176.344 29.8872C176.839 30.4754 177.086 31.3175 177.086 32.4136V32.9023H172.434C172.451 33.5794 172.647 34.1274 173.024 34.5464C173.405 34.9611 173.887 35.1685 174.471 35.1685C174.886 35.1685 175.237 35.0838 175.525 34.9146C175.813 34.7453 176.064 34.521 176.28 34.2417L176.998 34.8003C176.422 35.6847 175.559 36.127 174.408 36.127ZM174.262 29.9697C173.788 29.9697 173.39 30.1432 173.068 30.4902C172.747 30.833 172.548 31.3154 172.472 31.9375H175.912V31.8486C175.878 31.252 175.717 30.7907 175.43 30.4648C175.142 30.1348 174.753 29.9697 174.262 29.9697ZM182.421 30.1855C182.243 30.1559 182.051 30.1411 181.843 30.1411C181.073 30.1411 180.551 30.4691 180.275 31.125V36H179.101V29.1318H180.244L180.263 29.9253C180.648 29.3117 181.194 29.0049 181.9 29.0049C182.129 29.0049 182.303 29.0345 182.421 29.0938V30.1855Z" fill="white"/>
</svg>
