<?xml version="1.0" standalone="no"?>
<!DOCTYPE svg PUBLIC "-//W3C//DTD SVG 20010904//EN"
 "http://www.w3.org/TR/2001/REC-SVG-20010904/DTD/svg10.dtd">
<svg version="1.0" xmlns="http://www.w3.org/2000/svg"
 width="170" height="80" viewBox="0 0 330.000000 150.000000"
 preserveAspectRatio="xMidYMid meet">

<g transform="translate(0.000000,150.000000) scale(0.100000,-0.100000)"
fill="white" stroke="none">
<path d="M415 1090 l-170 -99 0 -207 0 -207 155 -89 c85 -49 165 -94 177 -100
19 -9 46 3 197 88 l176 99 0 210 0 210 -173 98 c-95 53 -177 97 -183 97 -5 -1
-85 -45 -179 -100z m344 -17 c118 -67 149 -89 139 -98 -7 -7 -110 -67 -228
-135 -118 -68 -225 -130 -237 -138 -23 -14 -23 -14 -23 46 l0 61 170 97 c94
53 170 100 170 103 0 8 -141 91 -153 91 -4 0 -68 -35 -142 -77 l-135 -77 0
-161 c0 -142 2 -161 18 -171 9 -6 42 -24 72 -42 l55 -31 190 109 190 109 3
-51 c2 -28 1 -56 -1 -62 -3 -7 -77 -54 -166 -104 l-161 -92 -125 70 -125 71 0
194 0 193 158 91 c86 50 162 91 169 91 6 0 79 -39 162 -87z m-102 -30 c29 -16
53 -30 53 -33 -1 -3 -72 -45 -160 -95 l-160 -90 0 -87 0 -86 243 140 c133 77
254 146 270 154 l27 15 0 -184 0 -183 -157 -90 c-86 -49 -160 -91 -165 -93 -5
-1 -22 3 -39 9 l-30 13 166 94 165 94 0 91 c0 68 -3 89 -12 85 -7 -3 -98 -55
-203 -115 l-190 -110 -60 33 -60 34 -3 145 -3 144 123 71 c68 39 127 71 133
71 5 0 33 -12 62 -27z"/>
<path d="M1208 894 c-57 -30 -79 -132 -42 -188 32 -51 102 -70 159 -44 27 12
31 47 4 39 -8 -3 -33 -6 -56 -9 -36 -3 -46 0 -68 23 -15 17 -25 40 -25 57 0
36 24 83 45 92 27 10 80 7 93 -6 9 -9 15 -9 25 1 10 10 7 16 -12 32 -28 23
-85 24 -123 3z"/>
<path d="M1410 781 c0 -124 1 -131 20 -131 18 0 20 7 20 55 0 48 2 55 20 55
15 0 27 -15 45 -55 18 -41 29 -55 44 -55 20 0 20 2 -7 56 l-27 55 24 18 c31
24 33 74 3 103 -16 16 -37 23 -82 26 l-60 4 0 -131z m121 73 c20 -24 -1 -48
-45 -52 -35 -3 -36 -2 -36 32 0 34 2 36 34 36 18 0 39 -7 47 -16z"/>
<path d="M1630 780 l0 -130 85 0 c78 0 85 2 85 20 0 18 -7 20 -65 20 l-65 0 0
35 0 35 55 0 c48 0 55 2 55 20 0 18 -7 20 -55 20 l-55 0 0 35 0 35 65 0 c58 0
65 2 65 20 0 18 -7 20 -85 20 l-85 0 0 -130z"/>
<path d="M1830 904 c0 -14 92 -245 96 -242 2 2 18 43 37 92 18 48 37 88 42 88
5 0 24 -40 42 -88 19 -49 35 -90 37 -92 4 -3 96 228 96 242 0 4 -7 6 -16 4
-10 -2 -27 -30 -43 -71 -14 -38 -30 -69 -36 -69 -5 0 -21 32 -34 71 -21 56
-30 71 -46 71 -16 0 -25 -15 -46 -71 -13 -39 -29 -71 -34 -72 -6 0 -21 31 -35
69 -16 44 -32 70 -43 72 -9 2 -17 0 -17 -4z"/>
<path d="M2350 781 l0 -131 33 0 c93 0 148 41 154 117 7 84 -35 128 -129 139
l-58 7 0 -132z m124 68 c22 -17 26 -28 26 -69 0 -41 -4 -52 -26 -69 -15 -12
-40 -21 -55 -21 l-29 0 0 90 0 90 29 0 c15 0 40 -9 55 -21z"/>
<path d="M2600 780 l0 -130 80 0 c73 0 80 2 80 20 0 18 -7 20 -65 20 l-65 0 0
35 0 35 55 0 c48 0 55 2 55 20 0 18 -7 20 -55 20 l-55 0 0 35 0 35 65 0 c58 0
65 2 65 20 0 18 -7 20 -80 20 l-80 0 0 -130z"/>
<path d="M2816 843 c74 -192 72 -189 80 -168 4 11 27 69 50 128 39 101 41 108
22 105 -16 -2 -27 -20 -46 -75 -14 -40 -29 -73 -33 -73 -4 0 -19 34 -34 75
-21 57 -32 75 -46 75 -18 0 -17 -4 7 -67z"/>
</g>
</svg>
