<svg width="125" height="33" viewBox="0 0 125 33" fill="none" xmlns="http://www.w3.org/2000/svg">
<path d="M6.954 11.647C7.638 11.647 8.284 11.5013 8.892 11.21C9.5127 10.906 10.051 10.4753 10.507 9.918L12.008 11.362C11.3873 12.084 10.621 12.654 9.709 13.072C8.8097 13.49 7.866 13.699 6.878 13.699C5.9153 13.699 5.0097 13.5217 4.161 13.167C3.325 12.8123 2.5967 12.331 1.976 11.723C1.368 11.1023 0.886701 10.374 0.532001 9.538C0.177301 8.702 0 7.809 0 6.859C0 5.8963 0.177301 4.997 0.532001 4.161C0.886701 3.325 1.368 2.603 1.976 1.995C2.5967 1.37433 3.325 0.88667 4.161 0.532C5.0097 0.17733 5.9153 0 6.878 0C7.8913 0 8.854 0.209 9.766 0.627C10.6907 1.045 11.457 1.62133 12.065 2.356L10.526 3.876C10.0573 3.29333 9.5063 2.84367 8.873 2.527C8.2397 2.19767 7.5747 2.033 6.878 2.033C6.232 2.033 5.6303 2.15967 5.073 2.413C4.5157 2.65367 4.0343 2.98933 3.629 3.42C3.2363 3.8507 2.9197 4.3637 2.679 4.959C2.451 5.5417 2.337 6.175 2.337 6.859C2.337 7.5303 2.451 8.1637 2.679 8.759C2.9197 9.3417 3.2427 9.8483 3.648 10.279C4.066 10.697 4.56 11.0327 5.13 11.286C5.7 11.5267 6.308 11.647 6.954 11.647ZM17.9675 13.509V0.209H23.8765C25.1811 0.209 26.2451 0.58267 27.0685 1.33C27.9045 2.07733 28.3225 3.04633 28.3225 4.237C28.3225 5.0983 28.0818 5.852 27.6005 6.498C27.1318 7.144 26.4985 7.6063 25.7005 7.885L28.4935 13.509H25.9665L23.4015 8.189H20.2475V13.509H17.9675ZM23.6865 2.128H20.2475V6.365H23.6865C24.3831 6.365 24.9468 6.175 25.3775 5.795C25.8081 5.4023 26.0235 4.8893 26.0235 4.256C26.0235 3.6227 25.8081 3.10967 25.3775 2.717C24.9468 2.32433 24.3831 2.128 23.6865 2.128ZM34.3431 13.509V0.209H43.8625V2.147H36.6231V5.852H41.6775V7.752H36.6231V11.571H43.9385V13.509H34.3431ZM54.4025 13.509H52.0275L49.1205 0.209H51.4385L53.4145 9.956L56.2645 0.209H58.4305L61.2805 9.956L63.2565 0.209H65.4985L62.5915 13.509H60.2165L57.3095 3.42L54.4025 13.509ZM79.2765 13.509V0.209H84.1405C85.0905 0.209 85.9775 0.38 86.8005 0.722C87.6235 1.064 88.3265 1.53267 88.9095 2.128C89.5045 2.72333 89.9675 3.43267 90.2965 4.256C90.6385 5.0667 90.8095 5.9407 90.8095 6.878C90.8095 7.8153 90.6385 8.6893 90.2965 9.5C89.9675 10.3107 89.5045 11.0137 88.9095 11.609C88.3265 12.1917 87.6235 12.654 86.8005 12.996C85.9775 13.338 85.0905 13.509 84.1405 13.509H79.2765ZM84.1975 2.185H81.5565V11.533H84.1975C84.7925 11.533 85.3505 11.4127 85.8695 11.172C86.3885 10.9313 86.8385 10.6083 87.2185 10.203C87.5985 9.785 87.8965 9.291 88.1115 8.721C88.3395 8.151 88.4535 7.5367 88.4535 6.878C88.4535 6.2193 88.3395 5.605 88.1115 5.035C87.8965 4.4523 87.5985 3.952 87.2185 3.534C86.8385 3.116 86.3885 2.78667 85.8695 2.546C85.3505 2.30533 84.7925 2.185 84.1975 2.185ZM96.9885 13.509V0.209H106.508V2.147H99.2685V5.852H104.323V7.752H99.2685V11.571H106.584V13.509H96.9885ZM116.586 13.509L111.418 0.209H113.868L117.954 11.21L122.077 0.209H124.433L119.227 13.509H116.586Z" fill="#FFBE09"/>
<path d="M5.34361 25.4275H1.4652V29.509H0.246506V20.2668H5.97211V21.2697H1.4652V24.4309H5.34361V25.4275ZM11.0527 23.6945C10.875 23.6649 10.6824 23.6501 10.4751 23.6501C9.70491 23.6501 9.1823 23.9781 8.9072 24.634V29.509H7.7329V22.6408H8.8755L8.8945 23.4343C9.2796 22.8207 9.8255 22.5139 10.5322 22.5139C10.7607 22.5139 10.9342 22.5435 11.0527 22.6028V23.6945ZM12.3502 26.0114C12.3502 25.3386 12.4814 24.7334 12.7437 24.196C13.0103 23.6586 13.3785 23.2439 13.8482 22.9519C14.3222 22.6599 14.8617 22.5139 15.4669 22.5139C16.4021 22.5139 17.1575 22.8376 17.733 23.4851C18.3128 24.1325 18.6026 24.9937 18.6026 26.0686V26.1511C18.6026 26.8197 18.4736 27.4206 18.2154 27.9538C17.9615 28.4828 17.5955 28.8954 17.1173 29.1916C16.6433 29.4878 16.0974 29.636 15.4796 29.636C14.5486 29.636 13.7932 29.3122 13.2135 28.6648C12.6379 28.0173 12.3502 27.1604 12.3502 26.094V26.0114ZM13.5309 26.1511C13.5309 26.9128 13.7065 27.5243 14.0577 27.9856C14.4132 28.4468 14.8871 28.6775 15.4796 28.6775C16.0763 28.6775 16.5502 28.4447 16.9015 27.9792C17.2527 27.5095 17.4283 26.8536 17.4283 26.0114C17.4283 25.2582 17.2485 24.6488 16.8888 24.1833C16.5333 23.7136 16.0593 23.4787 15.4669 23.4787C14.8871 23.4787 14.4195 23.7094 14.0641 24.1706C13.7086 24.6319 13.5309 25.292 13.5309 26.1511ZM21.8361 22.6408L21.8742 23.5041C22.399 22.844 23.0845 22.5139 23.9309 22.5139C25.3824 22.5139 26.1144 23.3327 26.1271 24.9704V29.509H24.9528V24.9641C24.9486 24.469 24.8343 24.1029 24.6101 23.8659C24.39 23.629 24.0451 23.5105 23.5754 23.5105C23.1945 23.5105 22.8602 23.612 22.5725 23.8152C22.2847 24.0183 22.0604 24.2849 21.8996 24.615V29.509H20.7253V22.6408H21.8361ZM30.1414 20.9778V22.6408H31.4236V23.5486H30.1414V27.8078C30.1414 28.0829 30.1985 28.2902 30.3128 28.4299C30.427 28.5653 30.6217 28.633 30.8968 28.633C31.0322 28.633 31.2184 28.6076 31.4554 28.5569V29.509C31.1464 29.5936 30.846 29.636 30.554 29.636C30.0293 29.636 29.6336 29.4773 29.367 29.1599C29.1004 28.8425 28.9671 28.3918 28.9671 27.8078V23.5486H27.7166V22.6408H28.9671V20.9778H30.1414ZM36.3012 29.636C35.3702 29.636 34.6127 29.3313 34.0287 28.7219C33.4447 28.1083 33.1527 27.2894 33.1527 26.2653V26.0495C33.1527 25.3682 33.2818 24.761 33.5399 24.2278C33.8023 23.6903 34.1662 23.2714 34.6317 22.9709C35.1015 22.6662 35.6093 22.5139 36.1552 22.5139C37.0481 22.5139 37.7421 22.808 38.2372 23.3962C38.7323 23.9844 38.9795 24.8265 38.9795 25.9226V26.4113H34.327C34.344 27.0884 34.5407 27.6364 34.9174 28.0554C35.2982 28.4701 35.7807 28.6775 36.3646 28.6775C36.7794 28.6775 37.1306 28.5928 37.4184 28.4236C37.7061 28.2543 37.9579 28.03 38.1737 27.7507L38.8915 28.3093C38.3155 29.1937 37.4522 29.636 36.3012 29.636ZM36.1552 23.4787C35.6812 23.4787 35.2834 23.6522 34.9618 23.9992C34.6402 24.342 34.4413 24.8244 34.3651 25.4465H37.8056V25.3576C37.7717 24.761 37.6109 24.2997 37.3231 23.9738C37.0354 23.6438 36.6461 23.4787 36.1552 23.4787ZM42.1055 22.6408L42.1435 23.5041C42.6685 22.844 43.3535 22.5139 44.2005 22.5139C45.6515 22.5139 46.3835 23.3327 46.3965 24.9704V29.509H45.2225V24.9641C45.2175 24.469 45.1035 24.1029 44.8795 23.8659C44.6595 23.629 44.3145 23.5105 43.8445 23.5105C43.4635 23.5105 43.1295 23.612 42.8415 23.8152C42.5545 24.0183 42.3295 24.2849 42.1685 24.615V29.509H40.9945V22.6408H42.1055ZM48.5315 26.0178C48.5315 24.9641 48.7815 24.1177 49.2805 23.4787C49.7805 22.8355 50.4345 22.5139 51.2425 22.5139C52.0465 22.5139 52.6835 22.7889 53.1525 23.3391V19.759H54.3275V29.509H53.2485L53.1915 28.7727C52.7215 29.3482 52.0675 29.636 51.2295 29.636C50.4345 29.636 49.7845 29.3101 49.2805 28.6584C48.7815 28.0067 48.5315 27.1561 48.5315 26.1067V26.0178ZM49.7065 26.1511C49.7065 26.9297 49.8665 27.5391 50.1885 27.9792C50.5105 28.4193 50.9545 28.6394 51.5215 28.6394C52.2665 28.6394 52.8105 28.3051 53.1525 27.6364V24.4817C52.8015 23.8342 52.2625 23.5105 51.5345 23.5105C50.9585 23.5105 50.5105 23.7326 50.1885 24.177C49.8665 24.6213 49.7065 25.2793 49.7065 26.1511ZM60.3945 26.0178C60.3945 24.9641 60.6445 24.1177 61.1435 23.4787C61.6425 22.8355 62.2965 22.5139 63.1045 22.5139C63.9085 22.5139 64.5455 22.7889 65.0155 23.3391V19.759H66.1895V29.509H65.1105L65.0535 28.7727C64.5835 29.3482 63.9295 29.636 63.0925 29.636C62.2965 29.636 61.6465 29.3101 61.1435 28.6584C60.6445 28.0067 60.3945 27.1561 60.3945 26.1067V26.0178ZM61.5685 26.1511C61.5685 26.9297 61.7295 27.5391 62.0515 27.9792C62.3725 28.4193 62.8175 28.6394 63.3845 28.6394C64.1285 28.6394 64.6725 28.3051 65.0155 27.6364V24.4817C64.6645 23.8342 64.1245 23.5105 63.3965 23.5105C62.8215 23.5105 62.3725 23.7326 62.0515 24.177C61.7295 24.6213 61.5685 25.2793 61.5685 26.1511ZM71.5175 29.636C70.5865 29.636 69.8295 29.3313 69.2455 28.7219C68.6615 28.1083 68.3695 27.2894 68.3695 26.2653V26.0495C68.3695 25.3682 68.4985 24.761 68.7565 24.2278C69.0195 23.6903 69.3835 23.2714 69.8485 22.9709C70.3185 22.6662 70.8265 22.5139 71.3715 22.5139C72.2645 22.5139 72.9585 22.808 73.4535 23.3962C73.9495 23.9844 74.1965 24.8265 74.1965 25.9226V26.4113H69.5435C69.5605 27.0884 69.7575 27.6364 70.1345 28.0554C70.5155 28.4701 70.9975 28.6775 71.5815 28.6775C71.9965 28.6775 72.3475 28.5928 72.6355 28.4236C72.9225 28.2543 73.1745 28.03 73.3905 27.7507L74.1075 28.3093C73.5325 29.1937 72.6695 29.636 71.5175 29.636ZM71.3715 23.4787C70.8985 23.4787 70.5005 23.6522 70.1785 23.9992C69.8565 24.342 69.6585 24.8244 69.5815 25.4465H73.0225V25.3576C72.9885 24.761 72.8275 24.2997 72.5395 23.9738C72.2525 23.6438 71.8625 23.4787 71.3715 23.4787ZM78.3885 27.9157L80.0895 22.6408H81.2895L78.8265 29.509H77.9315L75.4435 22.6408H76.6435L78.3885 27.9157ZM85.8305 29.636C84.8995 29.636 84.1425 29.3313 83.5585 28.7219C82.9745 28.1083 82.6825 27.2894 82.6825 26.2653V26.0495C82.6825 25.3682 82.8115 24.761 83.0695 24.2278C83.3315 23.6903 83.6955 23.2714 84.1615 22.9709C84.6305 22.6662 85.1385 22.5139 85.6845 22.5139C86.5775 22.5139 87.2715 22.808 87.7665 23.3962C88.2615 23.9844 88.5095 24.8265 88.5095 25.9226V26.4113H83.8565C83.8735 27.0884 84.0705 27.6364 84.4465 28.0554C84.8275 28.4701 85.3105 28.6775 85.8945 28.6775C86.3085 28.6775 86.6605 28.5928 86.9475 28.4236C87.2355 28.2543 87.4875 28.03 87.7035 27.7507L88.4205 28.3093C87.8445 29.1937 86.9815 29.636 85.8305 29.636ZM85.6845 23.4787C85.2105 23.4787 84.8125 23.6522 84.4915 23.9992C84.1695 24.342 83.9705 24.8244 83.8945 25.4465H87.3355V25.3576C87.3015 24.761 87.1405 24.2997 86.8525 23.9738C86.5645 23.6438 86.1755 23.4787 85.6845 23.4787ZM91.7995 29.509H90.6255V19.759H91.7995V29.509ZM94.0245 26.0114C94.0245 25.3386 94.1555 24.7334 94.4175 24.196C94.6845 23.6586 95.0525 23.2439 95.5225 22.9519C95.9965 22.6599 96.5355 22.5139 97.1405 22.5139C98.0765 22.5139 98.8315 22.8376 99.4075 23.4851C99.9865 24.1325 100.277 24.9937 100.277 26.0686V26.1511C100.277 26.8197 100.148 27.4206 99.8895 27.9538C99.6355 28.4828 99.2695 28.8954 98.7915 29.1916C98.3175 29.4878 97.7715 29.636 97.1535 29.636C96.2225 29.636 95.4675 29.3122 94.8875 28.6648C94.3115 28.0173 94.0245 27.1604 94.0245 26.094V26.0114ZM95.2045 26.1511C95.2045 26.9128 95.3805 27.5243 95.7315 27.9856C96.0875 28.4468 96.5615 28.6775 97.1535 28.6775C97.7505 28.6775 98.2245 28.4447 98.5755 27.9792C98.9265 27.5095 99.1025 26.8536 99.1025 26.0114C99.1025 25.2582 98.9225 24.6488 98.5625 24.1833C98.2075 23.7136 97.7335 23.4787 97.1405 23.4787C96.5615 23.4787 96.0935 23.7094 95.7385 24.1706C95.3825 24.6319 95.2045 25.292 95.2045 26.1511ZM108.202 26.1511C108.202 27.1963 107.962 28.0385 107.484 28.6775C107.006 29.3165 106.359 29.636 105.542 29.636C104.708 29.636 104.052 29.3715 103.574 28.8425V32.1496H102.4V22.6408H103.473L103.53 23.4026C104.008 22.8101 104.672 22.5139 105.523 22.5139C106.348 22.5139 107 22.8249 107.478 23.447C107.96 24.0691 108.202 24.9345 108.202 26.0432V26.1511ZM107.027 26.0178C107.027 25.2434 106.862 24.6319 106.532 24.1833C106.202 23.7347 105.749 23.5105 105.174 23.5105C104.463 23.5105 103.93 23.8257 103.574 24.4563V27.738C103.925 28.3643 104.463 28.6775 105.186 28.6775C105.749 28.6775 106.195 28.4553 106.525 28.011C106.859 27.5624 107.027 26.898 107.027 26.0178ZM113.2 29.636C112.269 29.636 111.51 29.3313 110.926 28.7219C110.342 28.1083 110.051 27.2894 110.051 26.2653V26.0495C110.051 25.3682 110.18 24.761 110.438 24.2278C110.701 23.6903 111.065 23.2714 111.53 22.9709C112 22.6662 112.507 22.5139 113.053 22.5139C113.946 22.5139 114.64 22.808 115.135 23.3962C115.63 23.9844 115.878 24.8265 115.878 25.9226V26.4113H111.226C111.243 27.0884 111.439 27.6364 111.816 28.0554C112.197 28.4701 112.678 28.6775 113.262 28.6775C113.677 28.6775 114.028 28.5928 114.316 28.4236C114.604 28.2543 114.856 28.03 115.072 27.7507L115.79 28.3093C115.214 29.1937 114.351 29.636 113.2 29.636ZM113.053 23.4787C112.579 23.4787 112.181 23.6522 111.859 23.9992C111.538 24.342 111.34 24.8244 111.264 25.4465H114.704V25.3576C114.67 24.761 114.508 24.2997 114.221 23.9738C113.933 23.6438 113.544 23.4787 113.053 23.4787ZM121.213 23.6945C121.035 23.6649 120.843 23.6501 120.635 23.6501C119.865 23.6501 119.342 23.9781 119.066 24.634V29.509H117.893V22.6408H119.036L119.055 23.4343C119.44 22.8207 119.985 22.5139 120.691 22.5139C120.92 22.5139 121.095 22.5435 121.213 22.6028V23.6945Z" fill="white"/>
</svg>
